solid OpenSCAD_Model
  facet normal -1 0 0
    outer loop
      vertex 40 80 0
      vertex 40 73 3
      vertex 40 80 3
    endloop
  endfacet
  facet normal -1 0 0
    outer loop
      vertex 40 73 3
      vertex 40 25 3
      vertex 40 73 6
    endloop
  endfacet
  facet normal -1 0 0
    outer loop
      vertex 40 80 0
      vertex 40 25 3
      vertex 40 73 3
    endloop
  endfacet
  facet normal -1 0 0
    outer loop
      vertex 40 0 0
      vertex 40 25 3
      vertex 40 80 0
    endloop
  endfacet
  facet normal -1 -0 0
    outer loop
      vertex 40 25 3
      vertex 40 0 0
      vertex 40 0 3
    endloop
  endfacet
  facet normal -1 -0 0
    outer loop
      vertex 40 73 6
      vertex 40 25 3
      vertex 40 25 6
    endloop
  endfacet
  facet normal 0 0 1
    outer loop
      vertex 76 80 3
      vertex 74 76.5 3
      vertex 76 73 3
    endloop
  endfacet
  facet normal 0 0 1
    outer loop
      vertex 76 80 3
      vertex 73.9095 77.013 3
      vertex 74 76.5 3
    endloop
  endfacet
  facet normal 0 0 1
    outer loop
      vertex 76 80 3
      vertex 73.6491 77.4642 3
      vertex 73.9095 77.013 3
    endloop
  endfacet
  facet normal 0 0 1
    outer loop
      vertex 76 80 3
      vertex 73.25 77.799 3
      vertex 73.6491 77.4642 3
    endloop
  endfacet
  facet normal 0 0 1
    outer loop
      vertex 76 80 3
      vertex 72.7605 77.9772 3
      vertex 73.25 77.799 3
    endloop
  endfacet
  facet normal 0 0 1
    outer loop
      vertex 76 80 3
      vertex 72.2395 77.9772 3
      vertex 72.7605 77.9772 3
    endloop
  endfacet
  facet normal 0 0 1
    outer loop
      vertex 76 80 3
      vertex 71.75 77.799 3
      vertex 72.2395 77.9772 3
    endloop
  endfacet
  facet normal 0 0 1
    outer loop
      vertex 74 25 3
      vertex 70.25 21.549 3
      vertex 70.7395 21.7272 3
    endloop
  endfacet
  facet normal 0 0 1
    outer loop
      vertex 71.0905 75.987 3
      vertex 69.75 35.25 3
      vertex 70.25 21.549 3
    endloop
  endfacet
  facet normal 0 0 1
    outer loop
      vertex 71.0905 75.987 3
      vertex 69.75 48.25 3
      vertex 69.75 35.25 3
    endloop
  endfacet
  facet normal 0 0 1
    outer loop
      vertex 71.0905 75.987 3
      vertex 67.75 76 3
      vertex 67.75 66 3
    endloop
  endfacet
  facet normal 0 0 1
    outer loop
      vertex 71.0905 77.013 3
      vertex 67.75 76 3
      vertex 71 76.5 3
    endloop
  endfacet
  facet normal 0 0 1
    outer loop
      vertex 71.3509 77.4642 3
      vertex 67.75 76 3
      vertex 71.0905 77.013 3
    endloop
  endfacet
  facet normal 0 0 1
    outer loop
      vertex 71.75 77.799 3
      vertex 67.75 76 3
      vertex 71.3509 77.4642 3
    endloop
  endfacet
  facet normal 0 0 1
    outer loop
      vertex 44.25 77.799 3
      vertex 71.75 77.799 3
      vertex 76 80 3
    endloop
  endfacet
  facet normal 0 0 1
    outer loop
      vertex 71.75 77.799 3
      vertex 44.25 77.799 3
      vertex 67.75 76 3
    endloop
  endfacet
  facet normal -0 0 1
    outer loop
      vertex 44.25 75.201 3
      vertex 48.25 66 3
      vertex 48.25 76 3
    endloop
  endfacet
  facet normal 0 0 1
    outer loop
      vertex 48.25 66 3
      vertex 42 73 3
      vertex 48.25 58.5 3
    endloop
  endfacet
  facet normal 0 0 1
    outer loop
      vertex 42 25 3
      vertex 48.25 58.5 3
      vertex 42 73 3
    endloop
  endfacet
  facet normal 0 0 1
    outer loop
      vertex 48.25 25 3
      vertex 46.4095 20.763 3
      vertex 46.5 20.25 3
    endloop
  endfacet
  facet normal 0 0 1
    outer loop
      vertex 48.25 25 3
      vertex 46.1491 21.2142 3
      vertex 46.4095 20.763 3
    endloop
  endfacet
  facet normal 0 0 1
    outer loop
      vertex 48.25 25 3
      vertex 45.75 21.549 3
      vertex 46.1491 21.2142 3
    endloop
  endfacet
  facet normal 0 -0 1
    outer loop
      vertex 45.2605 21.7272 3
      vertex 48.25 25 3
      vertex 42 25 3
    endloop
  endfacet
  facet normal 0 0 1
    outer loop
      vertex 44.9095 75.987 3
      vertex 48.25 76 3
      vertex 45 76.5 3
    endloop
  endfacet
  facet normal 0 0 1
    outer loop
      vertex 67.75 76 3
      vertex 44.25 77.799 3
      vertex 48.25 76 3
    endloop
  endfacet
  facet normal 0 0 1
    outer loop
      vertex 48.25 76 3
      vertex 44.9095 77.013 3
      vertex 45 76.5 3
    endloop
  endfacet
  facet normal 0 0 1
    outer loop
      vertex 48.25 76 3
      vertex 44.6491 77.4642 3
      vertex 44.9095 77.013 3
    endloop
  endfacet
  facet normal 0 0 1
    outer loop
      vertex 48.25 76 3
      vertex 44.25 77.799 3
      vertex 44.6491 77.4642 3
    endloop
  endfacet
  facet normal -0 0 1
    outer loop
      vertex 40 80 3
      vertex 44.25 77.799 3
      vertex 76 80 3
    endloop
  endfacet
  facet normal 0 0 1
    outer loop
      vertex 44.25 77.799 3
      vertex 40 80 3
      vertex 43.7605 77.9772 3
    endloop
  endfacet
  facet normal 0 0 1
    outer loop
      vertex 43.7605 77.9772 3
      vertex 40 80 3
      vertex 43.2395 77.9772 3
    endloop
  endfacet
  facet normal 0 0 1
    outer loop
      vertex 40 80 3
      vertex 42.75 77.799 3
      vertex 43.2395 77.9772 3
    endloop
  endfacet
  facet normal 0 0 1
    outer loop
      vertex 40 80 3
      vertex 42.3509 77.4642 3
      vertex 42.75 77.799 3
    endloop
  endfacet
  facet normal 0 0 1
    outer loop
      vertex 40 80 3
      vertex 42.0905 77.013 3
      vertex 42.3509 77.4642 3
    endloop
  endfacet
  facet normal 0 0 1
    outer loop
      vertex 40 80 3
      vertex 42 76.5 3
      vertex 42.0905 77.013 3
    endloop
  endfacet
  facet normal 0 0 1
    outer loop
      vertex 42 76.5 3
      vertex 40 73 3
      vertex 42.0905 75.987 3
    endloop
  endfacet
  facet normal 0 0 1
    outer loop
      vertex 42.0905 75.987 3
      vertex 40 73 3
      vertex 42 73 3
    endloop
  endfacet
  facet normal -0 0 1
    outer loop
      vertex 73.9095 75.987 3
      vertex 76 73 3
      vertex 74 76.5 3
    endloop
  endfacet
  facet normal -0 0 1
    outer loop
      vertex 73.6491 75.5358 3
      vertex 76 73 3
      vertex 73.9095 75.987 3
    endloop
  endfacet
  facet normal 0 0 1
    outer loop
      vertex 76 73 3
      vertex 73.6491 75.5358 3
      vertex 74 73 3
    endloop
  endfacet
  facet normal 0 0 1
    outer loop
      vertex 72.4095 20.763 3
      vertex 76 25 3
      vertex 74 25 3
    endloop
  endfacet
  facet normal -0 0 1
    outer loop
      vertex 73.25 75.201 3
      vertex 74 73 3
      vertex 73.6491 75.5358 3
    endloop
  endfacet
  facet normal -0 0 1
    outer loop
      vertex 72.7605 75.0228 3
      vertex 74 73 3
      vertex 73.25 75.201 3
    endloop
  endfacet
  facet normal -0 0 1
    outer loop
      vertex 72.2395 75.0228 3
      vertex 74 73 3
      vertex 72.7605 75.0228 3
    endloop
  endfacet
  facet normal 0 0 1
    outer loop
      vertex 71.75 75.201 3
      vertex 74 73 3
      vertex 72.2395 75.0228 3
    endloop
  endfacet
  facet normal 0 0 1
    outer loop
      vertex 76 25 3
      vertex 72.5 20.25 3
      vertex 72.4095 19.737 3
    endloop
  endfacet
  facet normal 0 0 1
    outer loop
      vertex 76 25 3
      vertex 72.4095 19.737 3
      vertex 76 0 3
    endloop
  endfacet
  facet normal -0 0 1
    outer loop
      vertex 72.1491 19.2858 3
      vertex 76 0 3
      vertex 72.4095 19.737 3
    endloop
  endfacet
  facet normal -0 0 1
    outer loop
      vertex 71.75 18.951 3
      vertex 76 0 3
      vertex 72.1491 19.2858 3
    endloop
  endfacet
  facet normal -0 0 1
    outer loop
      vertex 71.2605 18.7728 3
      vertex 76 0 3
      vertex 71.75 18.951 3
    endloop
  endfacet
  facet normal 0 0 1
    outer loop
      vertex 66.5 15 3
      vertex 71.2605 18.7728 3
      vertex 70.7395 18.7728 3
    endloop
  endfacet
  facet normal 0 0 1
    outer loop
      vertex 66.5 15 3
      vertex 70.7395 18.7728 3
      vertex 70.25 18.951 3
    endloop
  endfacet
  facet normal 0 0 1
    outer loop
      vertex 66.5 15 3
      vertex 70.25 18.951 3
      vertex 69.8509 19.2858 3
    endloop
  endfacet
  facet normal 0 0 1
    outer loop
      vertex 66.5 15 3
      vertex 69.8509 19.2858 3
      vertex 69.5905 19.737 3
    endloop
  endfacet
  facet normal -0 0 1
    outer loop
      vertex 66.5 25 3
      vertex 69.5905 20.763 3
      vertex 67.75 25 3
    endloop
  endfacet
  facet normal 0 0 1
    outer loop
      vertex 69.5905 20.763 3
      vertex 66.5 25 3
      vertex 69.5 20.25 3
    endloop
  endfacet
  facet normal 0 0 1
    outer loop
      vertex 66.5 15 3
      vertex 69.5 20.25 3
      vertex 66.5 25 3
    endloop
  endfacet
  facet normal 0 0 1
    outer loop
      vertex 69.5 20.25 3
      vertex 66.5 15 3
      vertex 69.5905 19.737 3
    endloop
  endfacet
  facet normal 0 0 1
    outer loop
      vertex 71.2605 18.7728 3
      vertex 66.5 15 3
      vertex 76 0 3
    endloop
  endfacet
  facet normal -0 0 1
    outer loop
      vertex 49.5 15 3
      vertex 76 0 3
      vertex 66.5 15 3
    endloop
  endfacet
  facet normal 0 0 1
    outer loop
      vertex 49.5 25 3
      vertex 46.5 20.25 3
      vertex 49.5 15 3
    endloop
  endfacet
  facet normal -0 0 1
    outer loop
      vertex 46.4095 19.737 3
      vertex 49.5 15 3
      vertex 46.5 20.25 3
    endloop
  endfacet
  facet normal -0 0 1
    outer loop
      vertex 46.1491 19.2858 3
      vertex 49.5 15 3
      vertex 46.4095 19.737 3
    endloop
  endfacet
  facet normal -0 0 1
    outer loop
      vertex 45.75 18.951 3
      vertex 49.5 15 3
      vertex 46.1491 19.2858 3
    endloop
  endfacet
  facet normal -0 0 1
    outer loop
      vertex 45.2605 18.7728 3
      vertex 49.5 15 3
      vertex 45.75 18.951 3
    endloop
  endfacet
  facet normal -0 0 1
    outer loop
      vertex 44.7395 18.7728 3
      vertex 49.5 15 3
      vertex 45.2605 18.7728 3
    endloop
  endfacet
  facet normal 0 0 1
    outer loop
      vertex 40 0 3
      vertex 44.7395 18.7728 3
      vertex 44.25 18.951 3
    endloop
  endfacet
  facet normal 0 0 1
    outer loop
      vertex 44.25 21.549 3
      vertex 42 25 3
      vertex 43.8509 21.2142 3
    endloop
  endfacet
  facet normal 0 0 1
    outer loop
      vertex 42 73 3
      vertex 42.75 75.201 3
      vertex 42.3509 75.5358 3
    endloop
  endfacet
  facet normal 0 0 1
    outer loop
      vertex 42 73 3
      vertex 42.3509 75.5358 3
      vertex 42.0905 75.987 3
    endloop
  endfacet
  facet normal 0 0 1
    outer loop
      vertex 40 73 3
      vertex 42 76.5 3
      vertex 40 80 3
    endloop
  endfacet
  facet normal 0 0 1
    outer loop
      vertex 43.8509 21.2142 3
      vertex 42 25 3
      vertex 43.5905 20.763 3
    endloop
  endfacet
  facet normal -0 0 1
    outer loop
      vertex 40 25 3
      vertex 43.5905 20.763 3
      vertex 42 25 3
    endloop
  endfacet
  facet normal 0 0 1
    outer loop
      vertex 43.5905 20.763 3
      vertex 40 25 3
      vertex 43.5 20.25 3
    endloop
  endfacet
  facet normal 0 0 1
    outer loop
      vertex 43.5 20.25 3
      vertex 40 25 3
      vertex 43.5905 19.737 3
    endloop
  endfacet
  facet normal 0 0 1
    outer loop
      vertex 40 0 3
      vertex 43.5905 19.737 3
      vertex 40 25 3
    endloop
  endfacet
  facet normal 0 0 1
    outer loop
      vertex 49.5 15 3
      vertex 40 0 3
      vertex 76 0 3
    endloop
  endfacet
  facet normal 0 0 1
    outer loop
      vertex 44.7395 18.7728 3
      vertex 40 0 3
      vertex 49.5 15 3
    endloop
  endfacet
  facet normal 0 0 1
    outer loop
      vertex 43.8509 19.2858 3
      vertex 40 0 3
      vertex 44.25 18.951 3
    endloop
  endfacet
  facet normal 0 0 1
    outer loop
      vertex 43.5905 19.737 3
      vertex 40 0 3
      vertex 43.8509 19.2858 3
    endloop
  endfacet
  facet normal 0 0 1
    outer loop
      vertex 46.5 20.25 3
      vertex 49.5 25 3
      vertex 48.25 25 3
    endloop
  endfacet
  facet normal -0 0 1
    outer loop
      vertex 48.25 66 3
      vertex 67.75 58.5 3
      vertex 67.75 66 3
    endloop
  endfacet
  facet normal 0 0 1
    outer loop
      vertex 67.75 58.5 3
      vertex 48.25 66 3
      vertex 48.25 58.5 3
    endloop
  endfacet
  facet normal 0 0 1
    outer loop
      vertex 71.0905 75.987 3
      vertex 67.75 66 3
      vertex 67.75 58.5 3
    endloop
  endfacet
  facet normal 0 0 1
    outer loop
      vertex 71.0905 75.987 3
      vertex 67.75 58.5 3
      vertex 69.75 48.25 3
    endloop
  endfacet
  facet normal 0 0 1
    outer loop
      vertex 69.75 48.25 3
      vertex 67.75 58.5 3
      vertex 67.75 48.25 3
    endloop
  endfacet
  facet normal 0 0 1
    outer loop
      vertex 44.6491 75.5358 3
      vertex 48.25 76 3
      vertex 44.9095 75.987 3
    endloop
  endfacet
  facet normal 0 0 1
    outer loop
      vertex 44.25 75.201 3
      vertex 48.25 76 3
      vertex 44.6491 75.5358 3
    endloop
  endfacet
  facet normal 0 0 1
    outer loop
      vertex 48.25 66 3
      vertex 44.25 75.201 3
      vertex 42 73 3
    endloop
  endfacet
  facet normal 0 0 1
    outer loop
      vertex 42 73 3
      vertex 44.25 75.201 3
      vertex 43.7605 75.0228 3
    endloop
  endfacet
  facet normal 0 0 1
    outer loop
      vertex 48.25 58.5 3
      vertex 42 25 3
      vertex 48.25 25 3
    endloop
  endfacet
  facet normal 0 0 1
    outer loop
      vertex 42 73 3
      vertex 43.7605 75.0228 3
      vertex 43.2395 75.0228 3
    endloop
  endfacet
  facet normal 0 0 1
    outer loop
      vertex 48.25 25 3
      vertex 45.2605 21.7272 3
      vertex 45.75 21.549 3
    endloop
  endfacet
  facet normal 0 0 1
    outer loop
      vertex 42 73 3
      vertex 43.2395 75.0228 3
      vertex 42.75 75.201 3
    endloop
  endfacet
  facet normal 0 0 1
    outer loop
      vertex 45.2605 21.7272 3
      vertex 42 25 3
      vertex 44.7395 21.7272 3
    endloop
  endfacet
  facet normal 0 0 1
    outer loop
      vertex 44.7395 21.7272 3
      vertex 42 25 3
      vertex 44.25 21.549 3
    endloop
  endfacet
  facet normal 0 0 1
    outer loop
      vertex 76 25 3
      vertex 72.4095 20.763 3
      vertex 72.5 20.25 3
    endloop
  endfacet
  facet normal 0 0 1
    outer loop
      vertex 71.3509 75.5358 3
      vertex 74 73 3
      vertex 71.75 75.201 3
    endloop
  endfacet
  facet normal 0 0 1
    outer loop
      vertex 74 25 3
      vertex 72.1491 21.2142 3
      vertex 72.4095 20.763 3
    endloop
  endfacet
  facet normal 0 0 1
    outer loop
      vertex 74 73 3
      vertex 71.3509 75.5358 3
      vertex 74 25 3
    endloop
  endfacet
  facet normal 0 0 1
    outer loop
      vertex 74 25 3
      vertex 71.75 21.549 3
      vertex 72.1491 21.2142 3
    endloop
  endfacet
  facet normal 0 0 1
    outer loop
      vertex 70.25 21.549 3
      vertex 74 25 3
      vertex 71.3509 75.5358 3
    endloop
  endfacet
  facet normal 0 0 1
    outer loop
      vertex 74 25 3
      vertex 71.2605 21.7272 3
      vertex 71.75 21.549 3
    endloop
  endfacet
  facet normal 0 0 1
    outer loop
      vertex 70.25 21.549 3
      vertex 71.3509 75.5358 3
      vertex 71.0905 75.987 3
    endloop
  endfacet
  facet normal -0 0 1
    outer loop
      vertex 67.75 76 3
      vertex 71.0905 75.987 3
      vertex 71 76.5 3
    endloop
  endfacet
  facet normal 0 0 1
    outer loop
      vertex 74 25 3
      vertex 70.7395 21.7272 3
      vertex 71.2605 21.7272 3
    endloop
  endfacet
  facet normal -0 0 1
    outer loop
      vertex 67.75 25 3
      vertex 70.25 21.549 3
      vertex 69.75 35.25 3
    endloop
  endfacet
  facet normal 0 0 1
    outer loop
      vertex 67.75 25 3
      vertex 69.75 35.25 3
      vertex 67.75 35.25 3
    endloop
  endfacet
  facet normal 0 0 1
    outer loop
      vertex 70.25 21.549 3
      vertex 67.75 25 3
      vertex 69.8509 21.2142 3
    endloop
  endfacet
  facet normal 0 0 1
    outer loop
      vertex 69.8509 21.2142 3
      vertex 67.75 25 3
      vertex 69.5905 20.763 3
    endloop
  endfacet
  facet normal 1 0 0
    outer loop
      vertex 76 73 6
      vertex 76 25 6
      vertex 76 73 3
    endloop
  endfacet
  facet normal 1 -0 0
    outer loop
      vertex 76 73 3
      vertex 76 80 0
      vertex 76 80 3
    endloop
  endfacet
  facet normal 1 0 0
    outer loop
      vertex 76 25 3
      vertex 76 73 3
      vertex 76 25 6
    endloop
  endfacet
  facet normal 1 0 0
    outer loop
      vertex 76 73 3
      vertex 76 25 3
      vertex 76 80 0
    endloop
  endfacet
  facet normal 1 0 0
    outer loop
      vertex 76 0 0
      vertex 76 25 3
      vertex 76 0 3
    endloop
  endfacet
  facet normal 1 0 0
    outer loop
      vertex 76 25 3
      vertex 76 0 0
      vertex 76 80 0
    endloop
  endfacet
  facet normal 0 0 -1
    outer loop
      vertex 71.0905 75.987 0
      vertex 44.9095 75.987 0
      vertex 45 76.5 0
    endloop
  endfacet
  facet normal -0 0 -1
    outer loop
      vertex 48.25 25 0
      vertex 44.25 21.549 0
      vertex 48.25 58.5 0
    endloop
  endfacet
  facet normal 0 0 -1
    outer loop
      vertex 48.25 58.5 0
      vertex 44.6491 75.5358 0
      vertex 44.9095 75.987 0
    endloop
  endfacet
  facet normal 0 0 -1
    outer loop
      vertex 43.8509 21.2142 0
      vertex 48.25 58.5 0
      vertex 44.25 21.549 0
    endloop
  endfacet
  facet normal 0 0 -1
    outer loop
      vertex 48.25 58.5 0
      vertex 44.25 75.201 0
      vertex 44.6491 75.5358 0
    endloop
  endfacet
  facet normal 0 0 -1
    outer loop
      vertex 43.5905 20.763 0
      vertex 48.25 58.5 0
      vertex 43.8509 21.2142 0
    endloop
  endfacet
  facet normal 0 0 -1
    outer loop
      vertex 48.25 58.5 0
      vertex 43.7605 75.0228 0
      vertex 44.25 75.201 0
    endloop
  endfacet
  facet normal 0 0 -1
    outer loop
      vertex 42.0905 75.987 0
      vertex 48.25 58.5 0
      vertex 43.5905 20.763 0
    endloop
  endfacet
  facet normal 0 0 -1
    outer loop
      vertex 40 80 0
      vertex 43.5905 20.763 0
      vertex 43.5 20.25 0
    endloop
  endfacet
  facet normal 0 0 -1
    outer loop
      vertex 48.25 58.5 0
      vertex 43.2395 75.0228 0
      vertex 43.7605 75.0228 0
    endloop
  endfacet
  facet normal 0 0 -1
    outer loop
      vertex 67.75 25 0
      vertex 69.8509 21.2142 0
      vertex 69.5905 20.763 0
    endloop
  endfacet
  facet normal 0 0 -1
    outer loop
      vertex 67.75 25 0
      vertex 69.5905 20.763 0
      vertex 69.5 20.25 0
    endloop
  endfacet
  facet normal 0 0 -1
    outer loop
      vertex 69.8509 21.2142 0
      vertex 67.75 25 0
      vertex 69.75 35.25 0
    endloop
  endfacet
  facet normal -0 0 -1
    outer loop
      vertex 69.75 35.25 0
      vertex 67.75 25 0
      vertex 67.75 35.25 0
    endloop
  endfacet
  facet normal 0 0 -1
    outer loop
      vertex 72.5 20.25 0
      vertex 76 80 0
      vertex 76 0 0
    endloop
  endfacet
  facet normal 0 0 -1
    outer loop
      vertex 76 80 0
      vertex 73.9095 75.987 0
      vertex 74 76.5 0
    endloop
  endfacet
  facet normal 0 0 -1
    outer loop
      vertex 72.4095 20.763 0
      vertex 76 80 0
      vertex 72.5 20.25 0
    endloop
  endfacet
  facet normal 0 0 -1
    outer loop
      vertex 69.75 48.25 0
      vertex 76 80 0
      vertex 72.4095 20.763 0
    endloop
  endfacet
  facet normal 0 0 -1
    outer loop
      vertex 76 80 0
      vertex 69.75 48.25 0
      vertex 73.9095 75.987 0
    endloop
  endfacet
  facet normal 0 0 -1
    outer loop
      vertex 73.9095 75.987 0
      vertex 69.75 48.25 0
      vertex 73.6491 75.5358 0
    endloop
  endfacet
  facet normal 0 0 -1
    outer loop
      vertex 76 0 0
      vertex 72.4095 19.737 0
      vertex 72.5 20.25 0
    endloop
  endfacet
  facet normal 0 0 -1
    outer loop
      vertex 76 0 0
      vertex 72.1491 19.2858 0
      vertex 72.4095 19.737 0
    endloop
  endfacet
  facet normal 0 0 -1
    outer loop
      vertex 76 0 0
      vertex 71.75 18.951 0
      vertex 72.1491 19.2858 0
    endloop
  endfacet
  facet normal 0 0 -1
    outer loop
      vertex 76 0 0
      vertex 71.2605 18.7728 0
      vertex 71.75 18.951 0
    endloop
  endfacet
  facet normal 0 0 -1
    outer loop
      vertex 76 0 0
      vertex 70.7395 18.7728 0
      vertex 71.2605 18.7728 0
    endloop
  endfacet
  facet normal 0 0 -1
    outer loop
      vertex 76 0 0
      vertex 70.25 18.951 0
      vertex 70.7395 18.7728 0
    endloop
  endfacet
  facet normal 0 0 -1
    outer loop
      vertex 76 0 0
      vertex 69.8509 19.2858 0
      vertex 70.25 18.951 0
    endloop
  endfacet
  facet normal 0 0 -1
    outer loop
      vertex 46.1491 19.2858 0
      vertex 69.8509 19.2858 0
      vertex 76 0 0
    endloop
  endfacet
  facet normal 0 0 -1
    outer loop
      vertex 46.5 20.25 0
      vertex 69.5 20.25 0
      vertex 69.5905 19.737 0
    endloop
  endfacet
  facet normal 0 0 -1
    outer loop
      vertex 69.8509 19.2858 0
      vertex 46.1491 19.2858 0
      vertex 69.5905 19.737 0
    endloop
  endfacet
  facet normal 0 -0 -1
    outer loop
      vertex 46.4095 19.737 0
      vertex 69.5905 19.737 0
      vertex 46.1491 19.2858 0
    endloop
  endfacet
  facet normal 0 0 -1
    outer loop
      vertex 46.4095 20.763 0
      vertex 48.25 25 0
      vertex 46.5 20.25 0
    endloop
  endfacet
  facet normal 0 0 -1
    outer loop
      vertex 69.5 20.25 0
      vertex 46.5 20.25 0
      vertex 67.75 25 0
    endloop
  endfacet
  facet normal -0 0 -1
    outer loop
      vertex 67.75 25 0
      vertex 46.5 20.25 0
      vertex 48.25 25 0
    endloop
  endfacet
  facet normal 0 -0 -1
    outer loop
      vertex 46.5 20.25 0
      vertex 69.5905 19.737 0
      vertex 46.4095 19.737 0
    endloop
  endfacet
  facet normal 0 0 -1
    outer loop
      vertex 76 0 0
      vertex 45.75 18.951 0
      vertex 46.1491 19.2858 0
    endloop
  endfacet
  facet normal 0 0 -1
    outer loop
      vertex 40 0 0
      vertex 45.75 18.951 0
      vertex 76 0 0
    endloop
  endfacet
  facet normal 0 0 -1
    outer loop
      vertex 45.75 18.951 0
      vertex 40 0 0
      vertex 45.2605 18.7728 0
    endloop
  endfacet
  facet normal -0 0 -1
    outer loop
      vertex 45.2605 18.7728 0
      vertex 40 0 0
      vertex 44.7395 18.7728 0
    endloop
  endfacet
  facet normal 0 0 -1
    outer loop
      vertex 48.25 58.5 0
      vertex 42.75 75.201 0
      vertex 43.2395 75.0228 0
    endloop
  endfacet
  facet normal 0 0 -1
    outer loop
      vertex 48.25 58.5 0
      vertex 42.3509 75.5358 0
      vertex 42.75 75.201 0
    endloop
  endfacet
  facet normal 0 0 -1
    outer loop
      vertex 48.25 58.5 0
      vertex 42.0905 75.987 0
      vertex 42.3509 75.5358 0
    endloop
  endfacet
  facet normal 0 0 -1
    outer loop
      vertex 43.5905 20.763 0
      vertex 40 80 0
      vertex 42.0905 75.987 0
    endloop
  endfacet
  facet normal 0 0 -1
    outer loop
      vertex 40 80 0
      vertex 43.5 20.25 0
      vertex 40 0 0
    endloop
  endfacet
  facet normal -0 0 -1
    outer loop
      vertex 43.5905 19.737 0
      vertex 40 0 0
      vertex 43.5 20.25 0
    endloop
  endfacet
  facet normal -0 0 -1
    outer loop
      vertex 43.8509 19.2858 0
      vertex 40 0 0
      vertex 43.5905 19.737 0
    endloop
  endfacet
  facet normal -0 0 -1
    outer loop
      vertex 44.25 18.951 0
      vertex 40 0 0
      vertex 43.8509 19.2858 0
    endloop
  endfacet
  facet normal -0 0 -1
    outer loop
      vertex 44.7395 18.7728 0
      vertex 40 0 0
      vertex 44.25 18.951 0
    endloop
  endfacet
  facet normal 0 0 -1
    outer loop
      vertex 73.9095 77.013 0
      vertex 76 80 0
      vertex 74 76.5 0
    endloop
  endfacet
  facet normal 0 0 -1
    outer loop
      vertex 73.6491 77.4642 0
      vertex 76 80 0
      vertex 73.9095 77.013 0
    endloop
  endfacet
  facet normal 0 0 -1
    outer loop
      vertex 73.25 77.799 0
      vertex 76 80 0
      vertex 73.6491 77.4642 0
    endloop
  endfacet
  facet normal 0 0 -1
    outer loop
      vertex 72.7605 77.9772 0
      vertex 76 80 0
      vertex 73.25 77.799 0
    endloop
  endfacet
  facet normal 0 0 -1
    outer loop
      vertex 72.2395 77.9772 0
      vertex 76 80 0
      vertex 72.7605 77.9772 0
    endloop
  endfacet
  facet normal 0 0 -1
    outer loop
      vertex 71.75 77.799 0
      vertex 76 80 0
      vertex 72.2395 77.9772 0
    endloop
  endfacet
  facet normal -0 0 -1
    outer loop
      vertex 72.2395 75.0228 0
      vertex 67.75 58.5 0
      vertex 71.75 75.201 0
    endloop
  endfacet
  facet normal 0 0 -1
    outer loop
      vertex 69.75 35.25 0
      vertex 70.25 21.549 0
      vertex 69.8509 21.2142 0
    endloop
  endfacet
  facet normal -0 0 -1
    outer loop
      vertex 71.75 75.201 0
      vertex 67.75 58.5 0
      vertex 71.3509 75.5358 0
    endloop
  endfacet
  facet normal -0 0 -1
    outer loop
      vertex 71.3509 75.5358 0
      vertex 67.75 58.5 0
      vertex 71.0905 75.987 0
    endloop
  endfacet
  facet normal 0 0 -1
    outer loop
      vertex 67.75 58.5 0
      vertex 69.75 48.25 0
      vertex 67.75 48.25 0
    endloop
  endfacet
  facet normal 0 0 -1
    outer loop
      vertex 44.9095 75.987 0
      vertex 71.0905 75.987 0
      vertex 67.75 58.5 0
    endloop
  endfacet
  facet normal 0 0 -1
    outer loop
      vertex 71.0905 75.987 0
      vertex 45 76.5 0
      vertex 71 76.5 0
    endloop
  endfacet
  facet normal 0 0 -1
    outer loop
      vertex 44.9095 75.987 0
      vertex 67.75 58.5 0
      vertex 48.25 58.5 0
    endloop
  endfacet
  facet normal 0 0 -1
    outer loop
      vertex 71 76.5 0
      vertex 45 76.5 0
      vertex 71.0905 77.013 0
    endloop
  endfacet
  facet normal 0 0 -1
    outer loop
      vertex 44.9095 77.013 0
      vertex 71.0905 77.013 0
      vertex 45 76.5 0
    endloop
  endfacet
  facet normal 0 0 -1
    outer loop
      vertex 46.1491 21.2142 0
      vertex 48.25 25 0
      vertex 46.4095 20.763 0
    endloop
  endfacet
  facet normal 0 0 -1
    outer loop
      vertex 45.75 21.549 0
      vertex 48.25 25 0
      vertex 46.1491 21.2142 0
    endloop
  endfacet
  facet normal 0 0 -1
    outer loop
      vertex 45.2605 21.7272 0
      vertex 48.25 25 0
      vertex 45.75 21.549 0
    endloop
  endfacet
  facet normal 0 0 -1
    outer loop
      vertex 44.7395 21.7272 0
      vertex 48.25 25 0
      vertex 45.2605 21.7272 0
    endloop
  endfacet
  facet normal 0 0 -1
    outer loop
      vertex 44.25 21.549 0
      vertex 48.25 25 0
      vertex 44.7395 21.7272 0
    endloop
  endfacet
  facet normal 0 0 -1
    outer loop
      vertex 71.0905 77.013 0
      vertex 44.9095 77.013 0
      vertex 71.3509 77.4642 0
    endloop
  endfacet
  facet normal 0 0 -1
    outer loop
      vertex 44.6491 77.4642 0
      vertex 71.3509 77.4642 0
      vertex 44.9095 77.013 0
    endloop
  endfacet
  facet normal 0 0 -1
    outer loop
      vertex 71.3509 77.4642 0
      vertex 44.6491 77.4642 0
      vertex 71.75 77.799 0
    endloop
  endfacet
  facet normal 0 0 -1
    outer loop
      vertex 44.25 77.799 0
      vertex 71.75 77.799 0
      vertex 44.6491 77.4642 0
    endloop
  endfacet
  facet normal 0 0 -1
    outer loop
      vertex 71.75 77.799 0
      vertex 44.25 77.799 0
      vertex 76 80 0
    endloop
  endfacet
  facet normal 0 0 -1
    outer loop
      vertex 40 80 0
      vertex 44.25 77.799 0
      vertex 43.7605 77.9772 0
    endloop
  endfacet
  facet normal 0 0 -1
    outer loop
      vertex 40 80 0
      vertex 43.7605 77.9772 0
      vertex 43.2395 77.9772 0
    endloop
  endfacet
  facet normal 0 0 -1
    outer loop
      vertex 44.25 77.799 0
      vertex 40 80 0
      vertex 76 80 0
    endloop
  endfacet
  facet normal 0 0 -1
    outer loop
      vertex 42.75 77.799 0
      vertex 40 80 0
      vertex 43.2395 77.9772 0
    endloop
  endfacet
  facet normal 0 0 -1
    outer loop
      vertex 42.3509 77.4642 0
      vertex 40 80 0
      vertex 42.75 77.799 0
    endloop
  endfacet
  facet normal 0 0 -1
    outer loop
      vertex 42.0905 77.013 0
      vertex 40 80 0
      vertex 42.3509 77.4642 0
    endloop
  endfacet
  facet normal 0 0 -1
    outer loop
      vertex 42 76.5 0
      vertex 40 80 0
      vertex 42.0905 77.013 0
    endloop
  endfacet
  facet normal 0 0 -1
    outer loop
      vertex 42.0905 75.987 0
      vertex 40 80 0
      vertex 42 76.5 0
    endloop
  endfacet
  facet normal 0 0 -1
    outer loop
      vertex 67.75 58.5 0
      vertex 73.6491 75.5358 0
      vertex 69.75 48.25 0
    endloop
  endfacet
  facet normal 0 0 -1
    outer loop
      vertex 69.75 35.25 0
      vertex 72.4095 20.763 0
      vertex 72.1491 21.2142 0
    endloop
  endfacet
  facet normal 0 0 -1
    outer loop
      vertex 69.75 35.25 0
      vertex 72.1491 21.2142 0
      vertex 71.75 21.549 0
    endloop
  endfacet
  facet normal 0 0 -1
    outer loop
      vertex 69.75 35.25 0
      vertex 71.75 21.549 0
      vertex 71.2605 21.7272 0
    endloop
  endfacet
  facet normal 0 0 -1
    outer loop
      vertex 69.75 48.25 0
      vertex 72.4095 20.763 0
      vertex 69.75 35.25 0
    endloop
  endfacet
  facet normal 0 0 -1
    outer loop
      vertex 69.75 35.25 0
      vertex 71.2605 21.7272 0
      vertex 70.7395 21.7272 0
    endloop
  endfacet
  facet normal 0 0 -1
    outer loop
      vertex 73.6491 75.5358 0
      vertex 67.75 58.5 0
      vertex 73.25 75.201 0
    endloop
  endfacet
  facet normal 0 0 -1
    outer loop
      vertex 69.75 35.25 0
      vertex 70.7395 21.7272 0
      vertex 70.25 21.549 0
    endloop
  endfacet
  facet normal 0 0 -1
    outer loop
      vertex 73.25 75.201 0
      vertex 67.75 58.5 0
      vertex 72.7605 75.0228 0
    endloop
  endfacet
  facet normal -0 0 -1
    outer loop
      vertex 72.7605 75.0228 0
      vertex 67.75 58.5 0
      vertex 72.2395 75.0228 0
    endloop
  endfacet
  facet normal 0 -1 0
    outer loop
      vertex 40 0 0
      vertex 76 0 3
      vertex 40 0 3
    endloop
  endfacet
  facet normal 0 -1 -0
    outer loop
      vertex 76 0 3
      vertex 40 0 0
      vertex 76 0 0
    endloop
  endfacet
  facet normal 0 1 -0
    outer loop
      vertex 76 80 0
      vertex 40 80 3
      vertex 76 80 3
    endloop
  endfacet
  facet normal 0 1 0
    outer loop
      vertex 40 80 3
      vertex 76 80 0
      vertex 40 80 0
    endloop
  endfacet
  facet normal -1 0 0
    outer loop
      vertex 49.5 23 5
      vertex 49.5 25 4
      vertex 49.5 25 3
    endloop
  endfacet
  facet normal -1 0 0
    outer loop
      vertex 49.5 25 4
      vertex 49.5 23 5
      vertex 49.5 25 5
    endloop
  endfacet
  facet normal -1 0 0
    outer loop
      vertex 49.5 15 3
      vertex 49.5 23 5
      vertex 49.5 25 3
    endloop
  endfacet
  facet normal -1 0 0
    outer loop
      vertex 49.5 15 7
      vertex 49.5 23 5
      vertex 49.5 15 3
    endloop
  endfacet
  facet normal -1 0 0
    outer loop
      vertex 49.5 23 5
      vertex 49.5 15 7
      vertex 49.5 23 7
    endloop
  endfacet
  facet normal -0 0 1
    outer loop
      vertex 49.5 23 7
      vertex 66.5 15 7
      vertex 66.5 23 7
    endloop
  endfacet
  facet normal 0 0 1
    outer loop
      vertex 66.5 15 7
      vertex 49.5 23 7
      vertex 49.5 15 7
    endloop
  endfacet
  facet normal 1 0 0
    outer loop
      vertex 66.5 23 7
      vertex 66.5 15 7
      vertex 66.5 23 5
    endloop
  endfacet
  facet normal 1 -0 0
    outer loop
      vertex 66.5 23 5
      vertex 66.5 25 4
      vertex 66.5 25 5
    endloop
  endfacet
  facet normal 1 0 0
    outer loop
      vertex 66.5 25 4
      vertex 66.5 23 5
      vertex 66.5 25 3
    endloop
  endfacet
  facet normal 1 0 0
    outer loop
      vertex 66.5 15 3
      vertex 66.5 23 5
      vertex 66.5 15 7
    endloop
  endfacet
  facet normal 1 0 0
    outer loop
      vertex 66.5 23 5
      vertex 66.5 15 3
      vertex 66.5 25 3
    endloop
  endfacet
  facet normal 0 1 -0
    outer loop
      vertex 66.5 23 5
      vertex 49.5 23 7
      vertex 66.5 23 7
    endloop
  endfacet
  facet normal 0 1 0
    outer loop
      vertex 49.5 23 7
      vertex 66.5 23 5
      vertex 49.5 23 5
    endloop
  endfacet
  facet normal 0 -1 0
    outer loop
      vertex 49.5 15 3
      vertex 66.5 15 7
      vertex 49.5 15 7
    endloop
  endfacet
  facet normal 0 -1 -0
    outer loop
      vertex 66.5 15 7
      vertex 49.5 15 3
      vertex 66.5 15 3
    endloop
  endfacet
  facet normal -0 0 1
    outer loop
      vertex 49.5 25 5
      vertex 66.5 23 5
      vertex 66.5 25 5
    endloop
  endfacet
  facet normal 0 0 1
    outer loop
      vertex 66.5 23 5
      vertex 49.5 25 5
      vertex 49.5 23 5
    endloop
  endfacet
  facet normal 0 1 -0
    outer loop
      vertex 66.5 25 4
      vertex 49.5 25 5
      vertex 66.5 25 5
    endloop
  endfacet
  facet normal 0 1 0
    outer loop
      vertex 49.5 25 5
      vertex 66.5 25 4
      vertex 49.5 25 4
    endloop
  endfacet
  facet normal 0 1 -0
    outer loop
      vertex 67.75 25 0
      vertex 66.5 25 3
      vertex 67.75 25 3
    endloop
  endfacet
  facet normal 0 1 0
    outer loop
      vertex 66.5 25 3
      vertex 67.75 25 0
      vertex 49.5 25 3
    endloop
  endfacet
  facet normal 0 1 0
    outer loop
      vertex 48.25 25 0
      vertex 49.5 25 3
      vertex 67.75 25 0
    endloop
  endfacet
  facet normal 0 1 0
    outer loop
      vertex 49.5 25 3
      vertex 48.25 25 0
      vertex 48.25 25 3
    endloop
  endfacet
  facet normal 0 1 -0
    outer loop
      vertex 66.5 25 3
      vertex 49.5 25 4
      vertex 66.5 25 4
    endloop
  endfacet
  facet normal 0 1 0
    outer loop
      vertex 49.5 25 4
      vertex 66.5 25 3
      vertex 49.5 25 3
    endloop
  endfacet
  facet normal -0 0 1
    outer loop
      vertex 40 73 6
      vertex 42 25 6
      vertex 42 73 6
    endloop
  endfacet
  facet normal 0 0 1
    outer loop
      vertex 42 25 6
      vertex 40 73 6
      vertex 40 25 6
    endloop
  endfacet
  facet normal 1 -0 0
    outer loop
      vertex 42 25 6
      vertex 42 73 3
      vertex 42 73 6
    endloop
  endfacet
  facet normal 1 0 0
    outer loop
      vertex 42 73 3
      vertex 42 25 6
      vertex 42 25 3
    endloop
  endfacet
  facet normal 0 1 -0
    outer loop
      vertex 42 73 3
      vertex 40 73 6
      vertex 42 73 6
    endloop
  endfacet
  facet normal 0 1 0
    outer loop
      vertex 40 73 6
      vertex 42 73 3
      vertex 40 73 3
    endloop
  endfacet
  facet normal 0 -1 0
    outer loop
      vertex 40 25 3
      vertex 42 25 6
      vertex 40 25 6
    endloop
  endfacet
  facet normal 0 -1 -0
    outer loop
      vertex 42 25 6
      vertex 40 25 3
      vertex 42 25 3
    endloop
  endfacet
  facet normal -1 0 0
    outer loop
      vertex 74 25 3
      vertex 74 73 6
      vertex 74 73 3
    endloop
  endfacet
  facet normal -1 -0 0
    outer loop
      vertex 74 73 6
      vertex 74 25 3
      vertex 74 25 6
    endloop
  endfacet
  facet normal -0 0 1
    outer loop
      vertex 74 73 6
      vertex 76 25 6
      vertex 76 73 6
    endloop
  endfacet
  facet normal 0 0 1
    outer loop
      vertex 76 25 6
      vertex 74 73 6
      vertex 74 25 6
    endloop
  endfacet
  facet normal 0 -1 0
    outer loop
      vertex 74 25 3
      vertex 76 25 6
      vertex 74 25 6
    endloop
  endfacet
  facet normal 0 -1 -0
    outer loop
      vertex 76 25 6
      vertex 74 25 3
      vertex 76 25 3
    endloop
  endfacet
  facet normal 0 1 -0
    outer loop
      vertex 76 73 3
      vertex 74 73 6
      vertex 76 73 6
    endloop
  endfacet
  facet normal 0 1 0
    outer loop
      vertex 74 73 6
      vertex 76 73 3
      vertex 74 73 3
    endloop
  endfacet
  facet normal 1 -0 0
    outer loop
      vertex 48.25 66 3
      vertex 48.25 76 2
      vertex 48.25 76 3
    endloop
  endfacet
  facet normal 1 0 0
    outer loop
      vertex 48.25 76 2
      vertex 48.25 66 3
      vertex 48.25 66 2
    endloop
  endfacet
  facet normal -1 0 0
    outer loop
      vertex 67.75 66 2
      vertex 67.75 76 3
      vertex 67.75 76 2
    endloop
  endfacet
  facet normal -1 -0 0
    outer loop
      vertex 67.75 76 3
      vertex 67.75 66 2
      vertex 67.75 66 3
    endloop
  endfacet
  facet normal 0 -1 0
    outer loop
      vertex 48.25 76 2
      vertex 67.75 76 3
      vertex 48.25 76 3
    endloop
  endfacet
  facet normal 0 -1 -0
    outer loop
      vertex 67.75 76 3
      vertex 48.25 76 2
      vertex 67.75 76 2
    endloop
  endfacet
  facet normal -0 0 1
    outer loop
      vertex 48.25 76 2
      vertex 67.75 66 2
      vertex 67.75 76 2
    endloop
  endfacet
  facet normal 0 0 1
    outer loop
      vertex 67.75 66 2
      vertex 48.25 76 2
      vertex 48.25 66 2
    endloop
  endfacet
  facet normal 0 1 -0
    outer loop
      vertex 67.75 66 2
      vertex 48.25 66 3
      vertex 67.75 66 3
    endloop
  endfacet
  facet normal 0 1 0
    outer loop
      vertex 48.25 66 3
      vertex 67.75 66 2
      vertex 48.25 66 2
    endloop
  endfacet
  facet normal 1 -0 0
    outer loop
      vertex 48.25 25 3
      vertex 48.25 58.5 0
      vertex 48.25 58.5 3
    endloop
  endfacet
  facet normal 1 0 0
    outer loop
      vertex 48.25 58.5 0
      vertex 48.25 25 3
      vertex 48.25 25 0
    endloop
  endfacet
  facet normal -1 0 0
    outer loop
      vertex 67.75 48.25 0
      vertex 67.75 58.5 3
      vertex 67.75 58.5 0
    endloop
  endfacet
  facet normal -1 -0 0
    outer loop
      vertex 67.75 58.5 3
      vertex 67.75 48.25 0
      vertex 67.75 48.25 3
    endloop
  endfacet
  facet normal -1 0 0
    outer loop
      vertex 67.75 25 0
      vertex 67.75 35.25 3
      vertex 67.75 35.25 0
    endloop
  endfacet
  facet normal -1 -0 0
    outer loop
      vertex 67.75 35.25 3
      vertex 67.75 25 0
      vertex 67.75 25 3
    endloop
  endfacet
  facet normal 0 -1 0
    outer loop
      vertex 48.25 58.5 0
      vertex 67.75 58.5 3
      vertex 48.25 58.5 3
    endloop
  endfacet
  facet normal 0 -1 -0
    outer loop
      vertex 67.75 58.5 3
      vertex 48.25 58.5 0
      vertex 67.75 58.5 0
    endloop
  endfacet
  facet normal -1 0 0
    outer loop
      vertex 69.75 35.25 0
      vertex 69.75 48.25 3
      vertex 69.75 48.25 0
    endloop
  endfacet
  facet normal -1 -0 0
    outer loop
      vertex 69.75 48.25 3
      vertex 69.75 35.25 0
      vertex 69.75 35.25 3
    endloop
  endfacet
  facet normal 0 -1 0
    outer loop
      vertex 67.75 48.25 0
      vertex 69.75 48.25 3
      vertex 67.75 48.25 3
    endloop
  endfacet
  facet normal 0 -1 -0
    outer loop
      vertex 69.75 48.25 3
      vertex 67.75 48.25 0
      vertex 69.75 48.25 0
    endloop
  endfacet
  facet normal 0 1 -0
    outer loop
      vertex 69.75 35.25 0
      vertex 67.75 35.25 3
      vertex 69.75 35.25 3
    endloop
  endfacet
  facet normal 0 1 0
    outer loop
      vertex 67.75 35.25 3
      vertex 69.75 35.25 0
      vertex 67.75 35.25 0
    endloop
  endfacet
  facet normal -0.984793 -0.173731 0
    outer loop
      vertex 46.5 20.25 0
      vertex 46.4095 20.763 3
      vertex 46.4095 20.763 0
    endloop
  endfacet
  facet normal -0.984793 -0.173731 0
    outer loop
      vertex 46.4095 20.763 3
      vertex 46.5 20.25 0
      vertex 46.5 20.25 3
    endloop
  endfacet
  facet normal 0.866109 0.499855 0
    outer loop
      vertex 43.8509 19.2858 3
      vertex 43.5905 19.737 0
      vertex 43.5905 19.737 3
    endloop
  endfacet
  facet normal 0.866109 0.499855 0
    outer loop
      vertex 43.5905 19.737 0
      vertex 43.8509 19.2858 3
      vertex 43.8509 19.2858 0
    endloop
  endfacet
  facet normal 0.984793 0.173731 0
    outer loop
      vertex 43.5905 19.737 3
      vertex 43.5 20.25 0
      vertex 43.5 20.25 3
    endloop
  endfacet
  facet normal 0.984793 0.173731 0
    outer loop
      vertex 43.5 20.25 0
      vertex 43.5905 19.737 3
      vertex 43.5905 19.737 0
    endloop
  endfacet
  facet normal -0.642692 -0.766124 0
    outer loop
      vertex 45.75 21.549 0
      vertex 46.1491 21.2142 3
      vertex 45.75 21.549 3
    endloop
  endfacet
  facet normal -0.642692 -0.766124 -0
    outer loop
      vertex 46.1491 21.2142 3
      vertex 45.75 21.549 0
      vertex 46.1491 21.2142 0
    endloop
  endfacet
  facet normal -0.866109 -0.499855 0
    outer loop
      vertex 46.4095 20.763 0
      vertex 46.1491 21.2142 3
      vertex 46.1491 21.2142 0
    endloop
  endfacet
  facet normal -0.866109 -0.499855 0
    outer loop
      vertex 46.1491 21.2142 3
      vertex 46.4095 20.763 0
      vertex 46.4095 20.763 3
    endloop
  endfacet
  facet normal 0 -1 0
    outer loop
      vertex 44.7395 21.7272 0
      vertex 45.2605 21.7272 3
      vertex 44.7395 21.7272 3
    endloop
  endfacet
  facet normal 0 -1 -0
    outer loop
      vertex 45.2605 21.7272 3
      vertex 44.7395 21.7272 0
      vertex 45.2605 21.7272 0
    endloop
  endfacet
  facet normal 0.642692 -0.766124 0
    outer loop
      vertex 43.8509 21.2142 0
      vertex 44.25 21.549 3
      vertex 43.8509 21.2142 3
    endloop
  endfacet
  facet normal 0.642692 -0.766124 0
    outer loop
      vertex 44.25 21.549 3
      vertex 43.8509 21.2142 0
      vertex 44.25 21.549 0
    endloop
  endfacet
  facet normal 0.866109 -0.499855 0
    outer loop
      vertex 43.5905 20.763 3
      vertex 43.8509 21.2142 0
      vertex 43.8509 21.2142 3
    endloop
  endfacet
  facet normal 0.866109 -0.499855 0
    outer loop
      vertex 43.8509 21.2142 0
      vertex 43.5905 20.763 3
      vertex 43.5905 20.763 0
    endloop
  endfacet
  facet normal -0.984793 0.173731 0
    outer loop
      vertex 46.4095 19.737 0
      vertex 46.5 20.25 3
      vertex 46.5 20.25 0
    endloop
  endfacet
  facet normal -0.984793 0.173731 0
    outer loop
      vertex 46.5 20.25 3
      vertex 46.4095 19.737 0
      vertex 46.4095 19.737 3
    endloop
  endfacet
  facet normal 0.342082 -0.93967 0
    outer loop
      vertex 44.25 21.549 0
      vertex 44.7395 21.7272 3
      vertex 44.25 21.549 3
    endloop
  endfacet
  facet normal 0.342082 -0.93967 0
    outer loop
      vertex 44.7395 21.7272 3
      vertex 44.25 21.549 0
      vertex 44.7395 21.7272 0
    endloop
  endfacet
  facet normal -0.342082 -0.93967 0
    outer loop
      vertex 45.2605 21.7272 0
      vertex 45.75 21.549 3
      vertex 45.2605 21.7272 3
    endloop
  endfacet
  facet normal -0.342082 -0.93967 -0
    outer loop
      vertex 45.75 21.549 3
      vertex 45.2605 21.7272 0
      vertex 45.75 21.549 0
    endloop
  endfacet
  facet normal 0.984793 -0.173731 0
    outer loop
      vertex 43.5 20.25 3
      vertex 43.5905 20.763 0
      vertex 43.5905 20.763 3
    endloop
  endfacet
  facet normal 0.984793 -0.173731 0
    outer loop
      vertex 43.5905 20.763 0
      vertex 43.5 20.25 3
      vertex 43.5 20.25 0
    endloop
  endfacet
  facet normal -0.642692 0.766124 0
    outer loop
      vertex 46.1491 19.2858 0
      vertex 45.75 18.951 3
      vertex 46.1491 19.2858 3
    endloop
  endfacet
  facet normal -0.642692 0.766124 0
    outer loop
      vertex 45.75 18.951 3
      vertex 46.1491 19.2858 0
      vertex 45.75 18.951 0
    endloop
  endfacet
  facet normal -0.866109 0.499855 0
    outer loop
      vertex 46.1491 19.2858 0
      vertex 46.4095 19.737 3
      vertex 46.4095 19.737 0
    endloop
  endfacet
  facet normal -0.866109 0.499855 0
    outer loop
      vertex 46.4095 19.737 3
      vertex 46.1491 19.2858 0
      vertex 46.1491 19.2858 3
    endloop
  endfacet
  facet normal 0.342082 0.93967 -0
    outer loop
      vertex 44.7395 18.7728 0
      vertex 44.25 18.951 3
      vertex 44.7395 18.7728 3
    endloop
  endfacet
  facet normal 0.342082 0.93967 0
    outer loop
      vertex 44.25 18.951 3
      vertex 44.7395 18.7728 0
      vertex 44.25 18.951 0
    endloop
  endfacet
  facet normal 0.642692 0.766124 -0
    outer loop
      vertex 44.25 18.951 0
      vertex 43.8509 19.2858 3
      vertex 44.25 18.951 3
    endloop
  endfacet
  facet normal 0.642692 0.766124 0
    outer loop
      vertex 43.8509 19.2858 3
      vertex 44.25 18.951 0
      vertex 43.8509 19.2858 0
    endloop
  endfacet
  facet normal -0.342082 0.93967 0
    outer loop
      vertex 45.75 18.951 0
      vertex 45.2605 18.7728 3
      vertex 45.75 18.951 3
    endloop
  endfacet
  facet normal -0.342082 0.93967 0
    outer loop
      vertex 45.2605 18.7728 3
      vertex 45.75 18.951 0
      vertex 45.2605 18.7728 0
    endloop
  endfacet
  facet normal 0 1 -0
    outer loop
      vertex 45.2605 18.7728 0
      vertex 44.7395 18.7728 3
      vertex 45.2605 18.7728 3
    endloop
  endfacet
  facet normal 0 1 0
    outer loop
      vertex 44.7395 18.7728 3
      vertex 45.2605 18.7728 0
      vertex 44.7395 18.7728 0
    endloop
  endfacet
  facet normal -0.984793 -0.173731 0
    outer loop
      vertex 72.5 20.25 0
      vertex 72.4095 20.763 3
      vertex 72.4095 20.763 0
    endloop
  endfacet
  facet normal -0.984793 -0.173731 0
    outer loop
      vertex 72.4095 20.763 3
      vertex 72.5 20.25 0
      vertex 72.5 20.25 3
    endloop
  endfacet
  facet normal 0.866109 0.499855 0
    outer loop
      vertex 69.8509 19.2858 3
      vertex 69.5905 19.737 0
      vertex 69.5905 19.737 3
    endloop
  endfacet
  facet normal 0.866109 0.499855 0
    outer loop
      vertex 69.5905 19.737 0
      vertex 69.8509 19.2858 3
      vertex 69.8509 19.2858 0
    endloop
  endfacet
  facet normal 0.984793 0.173731 0
    outer loop
      vertex 69.5905 19.737 3
      vertex 69.5 20.25 0
      vertex 69.5 20.25 3
    endloop
  endfacet
  facet normal 0.984793 0.173731 0
    outer loop
      vertex 69.5 20.25 0
      vertex 69.5905 19.737 3
      vertex 69.5905 19.737 0
    endloop
  endfacet
  facet normal -0.642692 -0.766124 0
    outer loop
      vertex 71.75 21.549 0
      vertex 72.1491 21.2142 3
      vertex 71.75 21.549 3
    endloop
  endfacet
  facet normal -0.642692 -0.766124 -0
    outer loop
      vertex 72.1491 21.2142 3
      vertex 71.75 21.549 0
      vertex 72.1491 21.2142 0
    endloop
  endfacet
  facet normal -0.866109 -0.499855 0
    outer loop
      vertex 72.4095 20.763 0
      vertex 72.1491 21.2142 3
      vertex 72.1491 21.2142 0
    endloop
  endfacet
  facet normal -0.866109 -0.499855 0
    outer loop
      vertex 72.1491 21.2142 3
      vertex 72.4095 20.763 0
      vertex 72.4095 20.763 3
    endloop
  endfacet
  facet normal 0 -1 0
    outer loop
      vertex 70.7395 21.7272 0
      vertex 71.2605 21.7272 3
      vertex 70.7395 21.7272 3
    endloop
  endfacet
  facet normal 0 -1 -0
    outer loop
      vertex 71.2605 21.7272 3
      vertex 70.7395 21.7272 0
      vertex 71.2605 21.7272 0
    endloop
  endfacet
  facet normal 0.642692 -0.766124 0
    outer loop
      vertex 69.8509 21.2142 0
      vertex 70.25 21.549 3
      vertex 69.8509 21.2142 3
    endloop
  endfacet
  facet normal 0.642692 -0.766124 0
    outer loop
      vertex 70.25 21.549 3
      vertex 69.8509 21.2142 0
      vertex 70.25 21.549 0
    endloop
  endfacet
  facet normal 0.866109 -0.499855 0
    outer loop
      vertex 69.5905 20.763 3
      vertex 69.8509 21.2142 0
      vertex 69.8509 21.2142 3
    endloop
  endfacet
  facet normal 0.866109 -0.499855 0
    outer loop
      vertex 69.8509 21.2142 0
      vertex 69.5905 20.763 3
      vertex 69.5905 20.763 0
    endloop
  endfacet
  facet normal -0.984793 0.173731 0
    outer loop
      vertex 72.4095 19.737 0
      vertex 72.5 20.25 3
      vertex 72.5 20.25 0
    endloop
  endfacet
  facet normal -0.984793 0.173731 0
    outer loop
      vertex 72.5 20.25 3
      vertex 72.4095 19.737 0
      vertex 72.4095 19.737 3
    endloop
  endfacet
  facet normal 0.342082 -0.93967 0
    outer loop
      vertex 70.25 21.549 0
      vertex 70.7395 21.7272 3
      vertex 70.25 21.549 3
    endloop
  endfacet
  facet normal 0.342082 -0.93967 0
    outer loop
      vertex 70.7395 21.7272 3
      vertex 70.25 21.549 0
      vertex 70.7395 21.7272 0
    endloop
  endfacet
  facet normal -0.342082 -0.93967 0
    outer loop
      vertex 71.2605 21.7272 0
      vertex 71.75 21.549 3
      vertex 71.2605 21.7272 3
    endloop
  endfacet
  facet normal -0.342082 -0.93967 -0
    outer loop
      vertex 71.75 21.549 3
      vertex 71.2605 21.7272 0
      vertex 71.75 21.549 0
    endloop
  endfacet
  facet normal 0.984793 -0.173731 0
    outer loop
      vertex 69.5 20.25 3
      vertex 69.5905 20.763 0
      vertex 69.5905 20.763 3
    endloop
  endfacet
  facet normal 0.984793 -0.173731 0
    outer loop
      vertex 69.5905 20.763 0
      vertex 69.5 20.25 3
      vertex 69.5 20.25 0
    endloop
  endfacet
  facet normal -0.642692 0.766124 0
    outer loop
      vertex 72.1491 19.2858 0
      vertex 71.75 18.951 3
      vertex 72.1491 19.2858 3
    endloop
  endfacet
  facet normal -0.642692 0.766124 0
    outer loop
      vertex 71.75 18.951 3
      vertex 72.1491 19.2858 0
      vertex 71.75 18.951 0
    endloop
  endfacet
  facet normal -0.866109 0.499855 0
    outer loop
      vertex 72.1491 19.2858 0
      vertex 72.4095 19.737 3
      vertex 72.4095 19.737 0
    endloop
  endfacet
  facet normal -0.866109 0.499855 0
    outer loop
      vertex 72.4095 19.737 3
      vertex 72.1491 19.2858 0
      vertex 72.1491 19.2858 3
    endloop
  endfacet
  facet normal 0.342082 0.93967 -0
    outer loop
      vertex 70.7395 18.7728 0
      vertex 70.25 18.951 3
      vertex 70.7395 18.7728 3
    endloop
  endfacet
  facet normal 0.342082 0.93967 0
    outer loop
      vertex 70.25 18.951 3
      vertex 70.7395 18.7728 0
      vertex 70.25 18.951 0
    endloop
  endfacet
  facet normal 0.642692 0.766124 -0
    outer loop
      vertex 70.25 18.951 0
      vertex 69.8509 19.2858 3
      vertex 70.25 18.951 3
    endloop
  endfacet
  facet normal 0.642692 0.766124 0
    outer loop
      vertex 69.8509 19.2858 3
      vertex 70.25 18.951 0
      vertex 69.8509 19.2858 0
    endloop
  endfacet
  facet normal -0.342082 0.93967 0
    outer loop
      vertex 71.75 18.951 0
      vertex 71.2605 18.7728 3
      vertex 71.75 18.951 3
    endloop
  endfacet
  facet normal -0.342082 0.93967 0
    outer loop
      vertex 71.2605 18.7728 3
      vertex 71.75 18.951 0
      vertex 71.2605 18.7728 0
    endloop
  endfacet
  facet normal 0 1 -0
    outer loop
      vertex 71.2605 18.7728 0
      vertex 70.7395 18.7728 3
      vertex 71.2605 18.7728 3
    endloop
  endfacet
  facet normal 0 1 0
    outer loop
      vertex 70.7395 18.7728 3
      vertex 71.2605 18.7728 0
      vertex 70.7395 18.7728 0
    endloop
  endfacet
  facet normal -0.984793 -0.173731 0
    outer loop
      vertex 45 76.5 0
      vertex 44.9095 77.013 3
      vertex 44.9095 77.013 0
    endloop
  endfacet
  facet normal -0.984793 -0.173731 0
    outer loop
      vertex 44.9095 77.013 3
      vertex 45 76.5 0
      vertex 45 76.5 3
    endloop
  endfacet
  facet normal 0.866109 0.499855 0
    outer loop
      vertex 42.3509 75.5358 3
      vertex 42.0905 75.987 0
      vertex 42.0905 75.987 3
    endloop
  endfacet
  facet normal 0.866109 0.499855 0
    outer loop
      vertex 42.0905 75.987 0
      vertex 42.3509 75.5358 3
      vertex 42.3509 75.5358 0
    endloop
  endfacet
  facet normal 0.984793 0.173731 0
    outer loop
      vertex 42.0905 75.987 3
      vertex 42 76.5 0
      vertex 42 76.5 3
    endloop
  endfacet
  facet normal 0.984793 0.173731 0
    outer loop
      vertex 42 76.5 0
      vertex 42.0905 75.987 3
      vertex 42.0905 75.987 0
    endloop
  endfacet
  facet normal -0.642692 -0.766124 0
    outer loop
      vertex 44.25 77.799 0
      vertex 44.6491 77.4642 3
      vertex 44.25 77.799 3
    endloop
  endfacet
  facet normal -0.642692 -0.766124 -0
    outer loop
      vertex 44.6491 77.4642 3
      vertex 44.25 77.799 0
      vertex 44.6491 77.4642 0
    endloop
  endfacet
  facet normal -0.866109 -0.499855 0
    outer loop
      vertex 44.9095 77.013 0
      vertex 44.6491 77.4642 3
      vertex 44.6491 77.4642 0
    endloop
  endfacet
  facet normal -0.866109 -0.499855 0
    outer loop
      vertex 44.6491 77.4642 3
      vertex 44.9095 77.013 0
      vertex 44.9095 77.013 3
    endloop
  endfacet
  facet normal 0 -1 0
    outer loop
      vertex 43.2395 77.9772 0
      vertex 43.7605 77.9772 3
      vertex 43.2395 77.9772 3
    endloop
  endfacet
  facet normal 0 -1 -0
    outer loop
      vertex 43.7605 77.9772 3
      vertex 43.2395 77.9772 0
      vertex 43.7605 77.9772 0
    endloop
  endfacet
  facet normal 0.642692 -0.766124 0
    outer loop
      vertex 42.3509 77.4642 0
      vertex 42.75 77.799 3
      vertex 42.3509 77.4642 3
    endloop
  endfacet
  facet normal 0.642692 -0.766124 0
    outer loop
      vertex 42.75 77.799 3
      vertex 42.3509 77.4642 0
      vertex 42.75 77.799 0
    endloop
  endfacet
  facet normal 0.866109 -0.499855 0
    outer loop
      vertex 42.0905 77.013 3
      vertex 42.3509 77.4642 0
      vertex 42.3509 77.4642 3
    endloop
  endfacet
  facet normal 0.866109 -0.499855 0
    outer loop
      vertex 42.3509 77.4642 0
      vertex 42.0905 77.013 3
      vertex 42.0905 77.013 0
    endloop
  endfacet
  facet normal -0.984793 0.173731 0
    outer loop
      vertex 44.9095 75.987 0
      vertex 45 76.5 3
      vertex 45 76.5 0
    endloop
  endfacet
  facet normal -0.984793 0.173731 0
    outer loop
      vertex 45 76.5 3
      vertex 44.9095 75.987 0
      vertex 44.9095 75.987 3
    endloop
  endfacet
  facet normal 0.342082 -0.93967 0
    outer loop
      vertex 42.75 77.799 0
      vertex 43.2395 77.9772 3
      vertex 42.75 77.799 3
    endloop
  endfacet
  facet normal 0.342082 -0.93967 0
    outer loop
      vertex 43.2395 77.9772 3
      vertex 42.75 77.799 0
      vertex 43.2395 77.9772 0
    endloop
  endfacet
  facet normal -0.342082 -0.93967 0
    outer loop
      vertex 43.7605 77.9772 0
      vertex 44.25 77.799 3
      vertex 43.7605 77.9772 3
    endloop
  endfacet
  facet normal -0.342082 -0.93967 -0
    outer loop
      vertex 44.25 77.799 3
      vertex 43.7605 77.9772 0
      vertex 44.25 77.799 0
    endloop
  endfacet
  facet normal 0.984793 -0.173731 0
    outer loop
      vertex 42 76.5 3
      vertex 42.0905 77.013 0
      vertex 42.0905 77.013 3
    endloop
  endfacet
  facet normal 0.984793 -0.173731 0
    outer loop
      vertex 42.0905 77.013 0
      vertex 42 76.5 3
      vertex 42 76.5 0
    endloop
  endfacet
  facet normal -0.642692 0.766124 0
    outer loop
      vertex 44.6491 75.5358 0
      vertex 44.25 75.201 3
      vertex 44.6491 75.5358 3
    endloop
  endfacet
  facet normal -0.642692 0.766124 0
    outer loop
      vertex 44.25 75.201 3
      vertex 44.6491 75.5358 0
      vertex 44.25 75.201 0
    endloop
  endfacet
  facet normal -0.866109 0.499855 0
    outer loop
      vertex 44.6491 75.5358 0
      vertex 44.9095 75.987 3
      vertex 44.9095 75.987 0
    endloop
  endfacet
  facet normal -0.866109 0.499855 0
    outer loop
      vertex 44.9095 75.987 3
      vertex 44.6491 75.5358 0
      vertex 44.6491 75.5358 3
    endloop
  endfacet
  facet normal 0.342082 0.93967 -0
    outer loop
      vertex 43.2395 75.0228 0
      vertex 42.75 75.201 3
      vertex 43.2395 75.0228 3
    endloop
  endfacet
  facet normal 0.342082 0.93967 0
    outer loop
      vertex 42.75 75.201 3
      vertex 43.2395 75.0228 0
      vertex 42.75 75.201 0
    endloop
  endfacet
  facet normal 0.642692 0.766124 -0
    outer loop
      vertex 42.75 75.201 0
      vertex 42.3509 75.5358 3
      vertex 42.75 75.201 3
    endloop
  endfacet
  facet normal 0.642692 0.766124 0
    outer loop
      vertex 42.3509 75.5358 3
      vertex 42.75 75.201 0
      vertex 42.3509 75.5358 0
    endloop
  endfacet
  facet normal -0.342082 0.93967 0
    outer loop
      vertex 44.25 75.201 0
      vertex 43.7605 75.0228 3
      vertex 44.25 75.201 3
    endloop
  endfacet
  facet normal -0.342082 0.93967 0
    outer loop
      vertex 43.7605 75.0228 3
      vertex 44.25 75.201 0
      vertex 43.7605 75.0228 0
    endloop
  endfacet
  facet normal 0 1 -0
    outer loop
      vertex 43.7605 75.0228 0
      vertex 43.2395 75.0228 3
      vertex 43.7605 75.0228 3
    endloop
  endfacet
  facet normal 0 1 0
    outer loop
      vertex 43.2395 75.0228 3
      vertex 43.7605 75.0228 0
      vertex 43.2395 75.0228 0
    endloop
  endfacet
  facet normal -0.984793 -0.173731 0
    outer loop
      vertex 74 76.5 0
      vertex 73.9095 77.013 3
      vertex 73.9095 77.013 0
    endloop
  endfacet
  facet normal -0.984793 -0.173731 0
    outer loop
      vertex 73.9095 77.013 3
      vertex 74 76.5 0
      vertex 74 76.5 3
    endloop
  endfacet
  facet normal 0.866109 0.499855 0
    outer loop
      vertex 71.3509 75.5358 3
      vertex 71.0905 75.987 0
      vertex 71.0905 75.987 3
    endloop
  endfacet
  facet normal 0.866109 0.499855 0
    outer loop
      vertex 71.0905 75.987 0
      vertex 71.3509 75.5358 3
      vertex 71.3509 75.5358 0
    endloop
  endfacet
  facet normal 0.984793 0.173731 0
    outer loop
      vertex 71.0905 75.987 3
      vertex 71 76.5 0
      vertex 71 76.5 3
    endloop
  endfacet
  facet normal 0.984793 0.173731 0
    outer loop
      vertex 71 76.5 0
      vertex 71.0905 75.987 3
      vertex 71.0905 75.987 0
    endloop
  endfacet
  facet normal -0.642692 -0.766124 0
    outer loop
      vertex 73.25 77.799 0
      vertex 73.6491 77.4642 3
      vertex 73.25 77.799 3
    endloop
  endfacet
  facet normal -0.642692 -0.766124 -0
    outer loop
      vertex 73.6491 77.4642 3
      vertex 73.25 77.799 0
      vertex 73.6491 77.4642 0
    endloop
  endfacet
  facet normal -0.866109 -0.499855 0
    outer loop
      vertex 73.9095 77.013 0
      vertex 73.6491 77.4642 3
      vertex 73.6491 77.4642 0
    endloop
  endfacet
  facet normal -0.866109 -0.499855 0
    outer loop
      vertex 73.6491 77.4642 3
      vertex 73.9095 77.013 0
      vertex 73.9095 77.013 3
    endloop
  endfacet
  facet normal 0 -1 0
    outer loop
      vertex 72.2395 77.9772 0
      vertex 72.7605 77.9772 3
      vertex 72.2395 77.9772 3
    endloop
  endfacet
  facet normal 0 -1 -0
    outer loop
      vertex 72.7605 77.9772 3
      vertex 72.2395 77.9772 0
      vertex 72.7605 77.9772 0
    endloop
  endfacet
  facet normal -0.342082 -0.93967 0
    outer loop
      vertex 72.7605 77.9772 0
      vertex 73.25 77.799 3
      vertex 72.7605 77.9772 3
    endloop
  endfacet
  facet normal -0.342082 -0.93967 -0
    outer loop
      vertex 73.25 77.799 3
      vertex 72.7605 77.9772 0
      vertex 73.25 77.799 0
    endloop
  endfacet
  facet normal 0.642692 -0.766124 0
    outer loop
      vertex 71.3509 77.4642 0
      vertex 71.75 77.799 3
      vertex 71.3509 77.4642 3
    endloop
  endfacet
  facet normal 0.642692 -0.766124 0
    outer loop
      vertex 71.75 77.799 3
      vertex 71.3509 77.4642 0
      vertex 71.75 77.799 0
    endloop
  endfacet
  facet normal 0.866109 -0.499855 0
    outer loop
      vertex 71.0905 77.013 3
      vertex 71.3509 77.4642 0
      vertex 71.3509 77.4642 3
    endloop
  endfacet
  facet normal 0.866109 -0.499855 0
    outer loop
      vertex 71.3509 77.4642 0
      vertex 71.0905 77.013 3
      vertex 71.0905 77.013 0
    endloop
  endfacet
  facet normal -0.984793 0.173731 0
    outer loop
      vertex 73.9095 75.987 0
      vertex 74 76.5 3
      vertex 74 76.5 0
    endloop
  endfacet
  facet normal -0.984793 0.173731 0
    outer loop
      vertex 74 76.5 3
      vertex 73.9095 75.987 0
      vertex 73.9095 75.987 3
    endloop
  endfacet
  facet normal 0.342082 -0.93967 0
    outer loop
      vertex 71.75 77.799 0
      vertex 72.2395 77.9772 3
      vertex 71.75 77.799 3
    endloop
  endfacet
  facet normal 0.342082 -0.93967 0
    outer loop
      vertex 72.2395 77.9772 3
      vertex 71.75 77.799 0
      vertex 72.2395 77.9772 0
    endloop
  endfacet
  facet normal 0.984793 -0.173731 0
    outer loop
      vertex 71 76.5 3
      vertex 71.0905 77.013 0
      vertex 71.0905 77.013 3
    endloop
  endfacet
  facet normal 0.984793 -0.173731 0
    outer loop
      vertex 71.0905 77.013 0
      vertex 71 76.5 3
      vertex 71 76.5 0
    endloop
  endfacet
  facet normal -0.642692 0.766124 0
    outer loop
      vertex 73.6491 75.5358 0
      vertex 73.25 75.201 3
      vertex 73.6491 75.5358 3
    endloop
  endfacet
  facet normal -0.642692 0.766124 0
    outer loop
      vertex 73.25 75.201 3
      vertex 73.6491 75.5358 0
      vertex 73.25 75.201 0
    endloop
  endfacet
  facet normal -0.866109 0.499855 0
    outer loop
      vertex 73.6491 75.5358 0
      vertex 73.9095 75.987 3
      vertex 73.9095 75.987 0
    endloop
  endfacet
  facet normal -0.866109 0.499855 0
    outer loop
      vertex 73.9095 75.987 3
      vertex 73.6491 75.5358 0
      vertex 73.6491 75.5358 3
    endloop
  endfacet
  facet normal 0.342082 0.93967 -0
    outer loop
      vertex 72.2395 75.0228 0
      vertex 71.75 75.201 3
      vertex 72.2395 75.0228 3
    endloop
  endfacet
  facet normal 0.342082 0.93967 0
    outer loop
      vertex 71.75 75.201 3
      vertex 72.2395 75.0228 0
      vertex 71.75 75.201 0
    endloop
  endfacet
  facet normal 0.642692 0.766124 -0
    outer loop
      vertex 71.75 75.201 0
      vertex 71.3509 75.5358 3
      vertex 71.75 75.201 3
    endloop
  endfacet
  facet normal 0.642692 0.766124 0
    outer loop
      vertex 71.3509 75.5358 3
      vertex 71.75 75.201 0
      vertex 71.3509 75.5358 0
    endloop
  endfacet
  facet normal -0.342082 0.93967 0
    outer loop
      vertex 73.25 75.201 0
      vertex 72.7605 75.0228 3
      vertex 73.25 75.201 3
    endloop
  endfacet
  facet normal -0.342082 0.93967 0
    outer loop
      vertex 72.7605 75.0228 3
      vertex 73.25 75.201 0
      vertex 72.7605 75.0228 0
    endloop
  endfacet
  facet normal 0 1 -0
    outer loop
      vertex 72.7605 75.0228 0
      vertex 72.2395 75.0228 3
      vertex 72.7605 75.0228 3
    endloop
  endfacet
  facet normal 0 1 0
    outer loop
      vertex 72.2395 75.0228 3
      vertex 72.7605 75.0228 0
      vertex 72.2395 75.0228 0
    endloop
  endfacet
endsolid OpenSCAD_Model
