solid OpenSCAD_Model
  facet normal -1 0 0
    outer loop
      vertex 30.5 0 2
      vertex 30.5 2.5 19
      vertex 30.5 2.5 2
    endloop
  endfacet
  facet normal -1 -0 0
    outer loop
      vertex 30.5 2.5 19
      vertex 30.5 0 2
      vertex 30.5 0 19
    endloop
  endfacet
  facet normal 0 0 1
    outer loop
      vertex 30.25 18.951 19
      vertex 30.5 14.5 19
      vertex 30.7395 18.7728 19
    endloop
  endfacet
  facet normal 0 0 1
    outer loop
      vertex 26.5 14.5 19
      vertex 30.25 18.951 19
      vertex 29.8509 19.2858 19
    endloop
  endfacet
  facet normal 0 0 1
    outer loop
      vertex 26.5 14.5 19
      vertex 29.8509 19.2858 19
      vertex 29.5905 19.737 19
    endloop
  endfacet
  facet normal 0 0 1
    outer loop
      vertex 26.5 14.5 19
      vertex 29.5905 19.737 19
      vertex 29.5 20.25 19
    endloop
  endfacet
  facet normal 0 0 1
    outer loop
      vertex 26.5 14.5 19
      vertex 29.5 20.25 19
      vertex 26.5 25 19
    endloop
  endfacet
  facet normal 0 0 1
    outer loop
      vertex 30.25 18.951 19
      vertex 26.5 14.5 19
      vertex 30.5 14.5 19
    endloop
  endfacet
  facet normal 0 0 1
    outer loop
      vertex 36 25 19
      vertex 33.5 5 19
      vertex 36 0 19
    endloop
  endfacet
  facet normal 0 0 1
    outer loop
      vertex 32.4095 19.737 19
      vertex 36 25 19
      vertex 32.5 20.25 19
    endloop
  endfacet
  facet normal 0 0 1
    outer loop
      vertex 36 25 19
      vertex 32.4095 20.763 19
      vertex 32.5 20.25 19
    endloop
  endfacet
  facet normal 0 0 1
    outer loop
      vertex 36 25 19
      vertex 32.1491 21.2142 19
      vertex 32.4095 20.763 19
    endloop
  endfacet
  facet normal 0 0 1
    outer loop
      vertex 36 25 19
      vertex 31.75 21.549 19
      vertex 32.1491 21.2142 19
    endloop
  endfacet
  facet normal 0 0 1
    outer loop
      vertex 36 25 19
      vertex 31.2605 21.7272 19
      vertex 31.75 21.549 19
    endloop
  endfacet
  facet normal -0 0 1
    outer loop
      vertex 26.5 25 19
      vertex 31.2605 21.7272 19
      vertex 36 25 19
    endloop
  endfacet
  facet normal 0 0 1
    outer loop
      vertex 31.2605 21.7272 19
      vertex 26.5 25 19
      vertex 30.7395 21.7272 19
    endloop
  endfacet
  facet normal 0 0 1
    outer loop
      vertex 29.5905 20.763 19
      vertex 26.5 25 19
      vertex 29.5 20.25 19
    endloop
  endfacet
  facet normal 0 0 1
    outer loop
      vertex 29.8509 21.2142 19
      vertex 26.5 25 19
      vertex 29.5905 20.763 19
    endloop
  endfacet
  facet normal 0 0 1
    outer loop
      vertex 30.25 21.549 19
      vertex 26.5 25 19
      vertex 29.8509 21.2142 19
    endloop
  endfacet
  facet normal 0 0 1
    outer loop
      vertex 30.7395 21.7272 19
      vertex 26.5 25 19
      vertex 30.25 21.549 19
    endloop
  endfacet
  facet normal -0 0 1
    outer loop
      vertex 33.5 2.5 19
      vertex 36 0 19
      vertex 33.5 5 19
    endloop
  endfacet
  facet normal 0 0 1
    outer loop
      vertex 30.5 0 19
      vertex 33.5 2.5 19
      vertex 30.5 2.5 19
    endloop
  endfacet
  facet normal 0 0 1
    outer loop
      vertex 33.5 2.5 19
      vertex 30.5 0 19
      vertex 36 0 19
    endloop
  endfacet
  facet normal 0 0 1
    outer loop
      vertex 36 25 19
      vertex 32.4095 19.737 19
      vertex 33.5 5 19
    endloop
  endfacet
  facet normal -0 0 1
    outer loop
      vertex 32.1491 19.2858 19
      vertex 33.5 5 19
      vertex 32.4095 19.737 19
    endloop
  endfacet
  facet normal 0 0 1
    outer loop
      vertex 30.5 14.5 19
      vertex 32.1491 19.2858 19
      vertex 31.75 18.951 19
    endloop
  endfacet
  facet normal 0 0 1
    outer loop
      vertex 30.5 14.5 19
      vertex 31.75 18.951 19
      vertex 31.2605 18.7728 19
    endloop
  endfacet
  facet normal 0 0 1
    outer loop
      vertex 30.5 14.5 19
      vertex 31.2605 18.7728 19
      vertex 30.7395 18.7728 19
    endloop
  endfacet
  facet normal 0 0 1
    outer loop
      vertex 32.1491 19.2858 19
      vertex 30.5 14.5 19
      vertex 33.5 5 19
    endloop
  endfacet
  facet normal 0 0 1
    outer loop
      vertex 33.5 5 19
      vertex 30.5 14.5 19
      vertex 30.5 5 19
    endloop
  endfacet
  facet normal 1 0 0
    outer loop
      vertex 36 25 19
      vertex 36 0 19
      vertex 36 25 15.5
    endloop
  endfacet
  facet normal 1 0 0
    outer loop
      vertex 36 73 15.5
      vertex 36 80 19
      vertex 36 73 19
    endloop
  endfacet
  facet normal 1 0 0
    outer loop
      vertex 36 80 19
      vertex 36 73 15.5
      vertex 36 80 0
    endloop
  endfacet
  facet normal 1 -0 0
    outer loop
      vertex 36 25 15.5
      vertex 36 80 0
      vertex 36 73 15.5
    endloop
  endfacet
  facet normal 1 0 0
    outer loop
      vertex 36 0 0
      vertex 36 25 15.5
      vertex 36 0 19
    endloop
  endfacet
  facet normal 1 0 0
    outer loop
      vertex 36 25 15.5
      vertex 36 0 0
      vertex 36 80 0
    endloop
  endfacet
  facet normal 0 0 -1
    outer loop
      vertex 31.0905 75.987 0
      vertex 4.90954 75.987 0
      vertex 5 76.5 0
    endloop
  endfacet
  facet normal 0 0 -1
    outer loop
      vertex 3.76047 75.0228 0
      vertex 5.26047 21.7272 0
      vertex 4.73953 21.7272 0
    endloop
  endfacet
  facet normal 0 0 -1
    outer loop
      vertex 5.75 21.549 0
      vertex 4.64907 75.5358 0
      vertex 4.90954 75.987 0
    endloop
  endfacet
  facet normal 0 0 -1
    outer loop
      vertex 3.23953 75.0228 0
      vertex 4.73953 21.7272 0
      vertex 4.25 21.549 0
    endloop
  endfacet
  facet normal 0 0 -1
    outer loop
      vertex 5.75 21.549 0
      vertex 4.25 75.201 0
      vertex 4.64907 75.5358 0
    endloop
  endfacet
  facet normal 0 0 -1
    outer loop
      vertex 2.75 75.201 0
      vertex 4.25 21.549 0
      vertex 3.85093 21.2142 0
    endloop
  endfacet
  facet normal 0 0 -1
    outer loop
      vertex 5.26047 21.7272 0
      vertex 3.76047 75.0228 0
      vertex 4.25 75.201 0
    endloop
  endfacet
  facet normal 0 0 -1
    outer loop
      vertex 2.35093 75.5358 0
      vertex 3.85093 21.2142 0
      vertex 3.59046 20.763 0
    endloop
  endfacet
  facet normal 0 0 -1
    outer loop
      vertex 0 80 0
      vertex 3.59046 20.763 0
      vertex 3.5 20.25 0
    endloop
  endfacet
  facet normal 0 0 -1
    outer loop
      vertex 4.73953 21.7272 0
      vertex 3.23953 75.0228 0
      vertex 3.76047 75.0228 0
    endloop
  endfacet
  facet normal 0 0 -1
    outer loop
      vertex 32.5 20.25 0
      vertex 36 80 0
      vertex 36 0 0
    endloop
  endfacet
  facet normal 0 0 -1
    outer loop
      vertex 36 80 0
      vertex 33.9095 75.987 0
      vertex 34 76.5 0
    endloop
  endfacet
  facet normal 0 0 -1
    outer loop
      vertex 32.4095 20.763 0
      vertex 36 80 0
      vertex 32.5 20.25 0
    endloop
  endfacet
  facet normal 0 0 -1
    outer loop
      vertex 36 80 0
      vertex 32.4095 20.763 0
      vertex 33.9095 75.987 0
    endloop
  endfacet
  facet normal 0 0 -1
    outer loop
      vertex 33.9095 75.987 0
      vertex 32.4095 20.763 0
      vertex 33.6491 75.5358 0
    endloop
  endfacet
  facet normal 0 0 -1
    outer loop
      vertex 32.1491 21.2142 0
      vertex 33.6491 75.5358 0
      vertex 32.4095 20.763 0
    endloop
  endfacet
  facet normal 0 0 -1
    outer loop
      vertex 36 0 0
      vertex 32.4095 19.737 0
      vertex 32.5 20.25 0
    endloop
  endfacet
  facet normal 0 0 -1
    outer loop
      vertex 36 0 0
      vertex 32.1491 19.2858 0
      vertex 32.4095 19.737 0
    endloop
  endfacet
  facet normal 0 0 -1
    outer loop
      vertex 36 0 0
      vertex 31.75 18.951 0
      vertex 32.1491 19.2858 0
    endloop
  endfacet
  facet normal 0 0 -1
    outer loop
      vertex 36 0 0
      vertex 31.2605 18.7728 0
      vertex 31.75 18.951 0
    endloop
  endfacet
  facet normal 0 0 -1
    outer loop
      vertex 36 0 0
      vertex 30.7395 18.7728 0
      vertex 31.2605 18.7728 0
    endloop
  endfacet
  facet normal 0 0 -1
    outer loop
      vertex 36 0 0
      vertex 30.25 18.951 0
      vertex 30.7395 18.7728 0
    endloop
  endfacet
  facet normal 0 0 -1
    outer loop
      vertex 36 0 0
      vertex 29.8509 19.2858 0
      vertex 30.25 18.951 0
    endloop
  endfacet
  facet normal 0 0 -1
    outer loop
      vertex 6.14907 19.2858 0
      vertex 29.8509 19.2858 0
      vertex 36 0 0
    endloop
  endfacet
  facet normal 0 0 -1
    outer loop
      vertex 29.5905 19.737 0
      vertex 6.5 20.25 0
      vertex 29.5 20.25 0
    endloop
  endfacet
  facet normal 0 0 -1
    outer loop
      vertex 29.8509 19.2858 0
      vertex 6.14907 19.2858 0
      vertex 29.5905 19.737 0
    endloop
  endfacet
  facet normal 0 0 -1
    outer loop
      vertex 29.5905 19.737 0
      vertex 6.40954 19.737 0
      vertex 6.5 20.25 0
    endloop
  endfacet
  facet normal -0 0 -1
    outer loop
      vertex 29.5905 19.737 0
      vertex 6.14907 19.2858 0
      vertex 6.40954 19.737 0
    endloop
  endfacet
  facet normal 0 0 -1
    outer loop
      vertex 36 0 0
      vertex 5.75 18.951 0
      vertex 6.14907 19.2858 0
    endloop
  endfacet
  facet normal 0 0 -1
    outer loop
      vertex 0 0 0
      vertex 5.75 18.951 0
      vertex 36 0 0
    endloop
  endfacet
  facet normal 0 0 -1
    outer loop
      vertex 5.75 18.951 0
      vertex 0 0 0
      vertex 5.26047 18.7728 0
    endloop
  endfacet
  facet normal -0 0 -1
    outer loop
      vertex 5.26047 18.7728 0
      vertex 0 0 0
      vertex 4.73953 18.7728 0
    endloop
  endfacet
  facet normal 0 0 -1
    outer loop
      vertex 4.25 21.549 0
      vertex 2.75 75.201 0
      vertex 3.23953 75.0228 0
    endloop
  endfacet
  facet normal 0 0 -1
    outer loop
      vertex 3.85093 21.2142 0
      vertex 2.35093 75.5358 0
      vertex 2.75 75.201 0
    endloop
  endfacet
  facet normal 0 0 -1
    outer loop
      vertex 3.59046 20.763 0
      vertex 2.09046 75.987 0
      vertex 2.35093 75.5358 0
    endloop
  endfacet
  facet normal 0 0 -1
    outer loop
      vertex 3.59046 20.763 0
      vertex 0 80 0
      vertex 2.09046 75.987 0
    endloop
  endfacet
  facet normal 0 0 -1
    outer loop
      vertex 0 80 0
      vertex 3.5 20.25 0
      vertex 0 0 0
    endloop
  endfacet
  facet normal -0 0 -1
    outer loop
      vertex 3.59046 19.737 0
      vertex 0 0 0
      vertex 3.5 20.25 0
    endloop
  endfacet
  facet normal -0 0 -1
    outer loop
      vertex 3.85093 19.2858 0
      vertex 0 0 0
      vertex 3.59046 19.737 0
    endloop
  endfacet
  facet normal -0 0 -1
    outer loop
      vertex 4.25 18.951 0
      vertex 0 0 0
      vertex 3.85093 19.2858 0
    endloop
  endfacet
  facet normal -0 0 -1
    outer loop
      vertex 4.73953 18.7728 0
      vertex 0 0 0
      vertex 4.25 18.951 0
    endloop
  endfacet
  facet normal 0 0 -1
    outer loop
      vertex 33.9095 77.013 0
      vertex 36 80 0
      vertex 34 76.5 0
    endloop
  endfacet
  facet normal 0 0 -1
    outer loop
      vertex 33.6491 77.4642 0
      vertex 36 80 0
      vertex 33.9095 77.013 0
    endloop
  endfacet
  facet normal 0 0 -1
    outer loop
      vertex 33.25 77.799 0
      vertex 36 80 0
      vertex 33.6491 77.4642 0
    endloop
  endfacet
  facet normal 0 0 -1
    outer loop
      vertex 32.7605 77.9772 0
      vertex 36 80 0
      vertex 33.25 77.799 0
    endloop
  endfacet
  facet normal 0 0 -1
    outer loop
      vertex 32.2395 77.9772 0
      vertex 36 80 0
      vertex 32.7605 77.9772 0
    endloop
  endfacet
  facet normal 0 0 -1
    outer loop
      vertex 31.75 77.799 0
      vertex 36 80 0
      vertex 32.2395 77.9772 0
    endloop
  endfacet
  facet normal 0 0 -1
    outer loop
      vertex 4.90954 75.987 0
      vertex 31.3509 75.5358 0
      vertex 31.75 75.201 0
    endloop
  endfacet
  facet normal 0 0 -1
    outer loop
      vertex 5.75 21.549 0
      vertex 30.25 21.549 0
      vertex 29.8509 21.2142 0
    endloop
  endfacet
  facet normal 0 0 -1
    outer loop
      vertex 6.14907 21.2142 0
      vertex 29.8509 21.2142 0
      vertex 29.5905 20.763 0
    endloop
  endfacet
  facet normal 0 0 -1
    outer loop
      vertex 6.40954 20.763 0
      vertex 29.5905 20.763 0
      vertex 29.5 20.25 0
    endloop
  endfacet
  facet normal 0 0 -1
    outer loop
      vertex 6.40954 20.763 0
      vertex 29.5 20.25 0
      vertex 6.5 20.25 0
    endloop
  endfacet
  facet normal 0 0 -1
    outer loop
      vertex 29.5905 20.763 0
      vertex 6.40954 20.763 0
      vertex 6.14907 21.2142 0
    endloop
  endfacet
  facet normal 0 0 -1
    outer loop
      vertex 29.8509 21.2142 0
      vertex 6.14907 21.2142 0
      vertex 5.75 21.549 0
    endloop
  endfacet
  facet normal 0 0 -1
    outer loop
      vertex 4.90954 75.987 0
      vertex 31.0905 75.987 0
      vertex 31.3509 75.5358 0
    endloop
  endfacet
  facet normal 0 0 -1
    outer loop
      vertex 31.0905 75.987 0
      vertex 5 76.5 0
      vertex 31 76.5 0
    endloop
  endfacet
  facet normal 0 0 -1
    outer loop
      vertex 4.25 75.201 0
      vertex 5.75 21.549 0
      vertex 5.26047 21.7272 0
    endloop
  endfacet
  facet normal 0 0 -1
    outer loop
      vertex 31 76.5 0
      vertex 5 76.5 0
      vertex 31.0905 77.013 0
    endloop
  endfacet
  facet normal 0 0 -1
    outer loop
      vertex 4.90954 77.013 0
      vertex 31.0905 77.013 0
      vertex 5 76.5 0
    endloop
  endfacet
  facet normal 0 0 -1
    outer loop
      vertex 31.0905 77.013 0
      vertex 4.90954 77.013 0
      vertex 31.3509 77.4642 0
    endloop
  endfacet
  facet normal 0 0 -1
    outer loop
      vertex 4.64907 77.4642 0
      vertex 31.3509 77.4642 0
      vertex 4.90954 77.013 0
    endloop
  endfacet
  facet normal 0 0 -1
    outer loop
      vertex 31.3509 77.4642 0
      vertex 4.64907 77.4642 0
      vertex 31.75 77.799 0
    endloop
  endfacet
  facet normal 0 0 -1
    outer loop
      vertex 4.25 77.799 0
      vertex 31.75 77.799 0
      vertex 4.64907 77.4642 0
    endloop
  endfacet
  facet normal 0 0 -1
    outer loop
      vertex 31.75 77.799 0
      vertex 4.25 77.799 0
      vertex 36 80 0
    endloop
  endfacet
  facet normal 0 0 -1
    outer loop
      vertex 0 80 0
      vertex 4.25 77.799 0
      vertex 3.76047 77.9772 0
    endloop
  endfacet
  facet normal 0 0 -1
    outer loop
      vertex 0 80 0
      vertex 3.76047 77.9772 0
      vertex 3.23953 77.9772 0
    endloop
  endfacet
  facet normal 0 0 -1
    outer loop
      vertex 4.25 77.799 0
      vertex 0 80 0
      vertex 36 80 0
    endloop
  endfacet
  facet normal 0 0 -1
    outer loop
      vertex 2.75 77.799 0
      vertex 0 80 0
      vertex 3.23953 77.9772 0
    endloop
  endfacet
  facet normal 0 0 -1
    outer loop
      vertex 2.35093 77.4642 0
      vertex 0 80 0
      vertex 2.75 77.799 0
    endloop
  endfacet
  facet normal 0 0 -1
    outer loop
      vertex 2.09046 77.013 0
      vertex 0 80 0
      vertex 2.35093 77.4642 0
    endloop
  endfacet
  facet normal 0 0 -1
    outer loop
      vertex 2 76.5 0
      vertex 0 80 0
      vertex 2.09046 77.013 0
    endloop
  endfacet
  facet normal 0 0 -1
    outer loop
      vertex 2.09046 75.987 0
      vertex 0 80 0
      vertex 2 76.5 0
    endloop
  endfacet
  facet normal 0 0 -1
    outer loop
      vertex 33.6491 75.5358 0
      vertex 32.1491 21.2142 0
      vertex 33.25 75.201 0
    endloop
  endfacet
  facet normal 0 0 -1
    outer loop
      vertex 31.75 21.549 0
      vertex 33.25 75.201 0
      vertex 32.1491 21.2142 0
    endloop
  endfacet
  facet normal 0 0 -1
    outer loop
      vertex 33.25 75.201 0
      vertex 31.75 21.549 0
      vertex 32.7605 75.0228 0
    endloop
  endfacet
  facet normal 0 0 -1
    outer loop
      vertex 31.2605 21.7272 0
      vertex 32.7605 75.0228 0
      vertex 31.75 21.549 0
    endloop
  endfacet
  facet normal -0 0 -1
    outer loop
      vertex 32.7605 75.0228 0
      vertex 31.2605 21.7272 0
      vertex 32.2395 75.0228 0
    endloop
  endfacet
  facet normal 0 0 -1
    outer loop
      vertex 30.7395 21.7272 0
      vertex 32.2395 75.0228 0
      vertex 31.2605 21.7272 0
    endloop
  endfacet
  facet normal -0 0 -1
    outer loop
      vertex 32.2395 75.0228 0
      vertex 30.7395 21.7272 0
      vertex 31.75 75.201 0
    endloop
  endfacet
  facet normal 0 0 -1
    outer loop
      vertex 30.25 21.549 0
      vertex 31.75 75.201 0
      vertex 30.7395 21.7272 0
    endloop
  endfacet
  facet normal 0 0 -1
    outer loop
      vertex 5.75 21.549 0
      vertex 31.75 75.201 0
      vertex 30.25 21.549 0
    endloop
  endfacet
  facet normal 0 0 -1
    outer loop
      vertex 4.90954 75.987 0
      vertex 31.75 75.201 0
      vertex 5.75 21.549 0
    endloop
  endfacet
  facet normal 0 -1 0
    outer loop
      vertex 0 0 19
      vertex 5.5 0 2
      vertex 5.5 0 19
    endloop
  endfacet
  facet normal 0 -1 -0
    outer loop
      vertex 5.5 0 2
      vertex 0 0 0
      vertex 30.5 0 2
    endloop
  endfacet
  facet normal 0 -1 0
    outer loop
      vertex 0 0 0
      vertex 5.5 0 2
      vertex 0 0 19
    endloop
  endfacet
  facet normal 0 -1 0
    outer loop
      vertex 30.5 0 2
      vertex 36 0 19
      vertex 30.5 0 19
    endloop
  endfacet
  facet normal 0 -1 0
    outer loop
      vertex 30.5 0 2
      vertex 36 0 0
      vertex 36 0 19
    endloop
  endfacet
  facet normal 0 -1 0
    outer loop
      vertex 36 0 0
      vertex 30.5 0 2
      vertex 0 0 0
    endloop
  endfacet
  facet normal 0 1 -0
    outer loop
      vertex 33.5 2.5 2
      vertex 30.5 2.5 19
      vertex 33.5 2.5 19
    endloop
  endfacet
  facet normal 0 1 0
    outer loop
      vertex 30.5 2.5 19
      vertex 33.5 2.5 2
      vertex 30.5 2.5 2
    endloop
  endfacet
  facet normal -1 0 0
    outer loop
      vertex 33.5 2.5 2
      vertex 33.5 5 19
      vertex 33.5 5 2
    endloop
  endfacet
  facet normal -1 -0 0
    outer loop
      vertex 33.5 5 19
      vertex 33.5 2.5 2
      vertex 33.5 2.5 19
    endloop
  endfacet
  facet normal -1 0 0
    outer loop
      vertex 30.5 5 2
      vertex 30.5 14.5 19
      vertex 30.5 14.5 2
    endloop
  endfacet
  facet normal -1 -0 0
    outer loop
      vertex 30.5 14.5 19
      vertex 30.5 5 2
      vertex 30.5 5 19
    endloop
  endfacet
  facet normal 0 -1 0
    outer loop
      vertex 30.5 5 2
      vertex 33.5 5 19
      vertex 30.5 5 19
    endloop
  endfacet
  facet normal 0 -1 -0
    outer loop
      vertex 33.5 5 19
      vertex 30.5 5 2
      vertex 33.5 5 2
    endloop
  endfacet
  facet normal 0 1 0
    outer loop
      vertex 34 25 15.5
      vertex 36 25 19
      vertex 36 25 15.5
    endloop
  endfacet
  facet normal 0 1 0
    outer loop
      vertex 36 25 19
      vertex 34 25 15.5
      vertex 26.5 25 19
    endloop
  endfacet
  facet normal 0 1 0
    outer loop
      vertex 34 25 15.5
      vertex 26.5 25 6
      vertex 26.5 25 19
    endloop
  endfacet
  facet normal 0 1 0
    outer loop
      vertex 26.5 25 6
      vertex 34 25 2
      vertex 9.5 25 6
    endloop
  endfacet
  facet normal 0 1 -0
    outer loop
      vertex 34 25 2
      vertex 26.5 25 6
      vertex 34 25 15.5
    endloop
  endfacet
  facet normal 0 1 0
    outer loop
      vertex 9.5 25 19
      vertex 2 25 15.5
      vertex 0 25 19
    endloop
  endfacet
  facet normal 0 1 -0
    outer loop
      vertex 9.5 25 6
      vertex 2 25 15.5
      vertex 9.5 25 19
    endloop
  endfacet
  facet normal 0 1 0
    outer loop
      vertex 9.5 25 6
      vertex 2 25 2
      vertex 2 25 15.5
    endloop
  endfacet
  facet normal 0 1 0
    outer loop
      vertex 2 25 2
      vertex 9.5 25 6
      vertex 34 25 2
    endloop
  endfacet
  facet normal 0 1 0
    outer loop
      vertex 0 25 19
      vertex 2 25 15.5
      vertex 0 25 15.5
    endloop
  endfacet
  facet normal -1 0 0
    outer loop
      vertex 26.5 14.5 6
      vertex 26.5 25 19
      vertex 26.5 25 6
    endloop
  endfacet
  facet normal -1 -0 0
    outer loop
      vertex 26.5 25 19
      vertex 26.5 14.5 6
      vertex 26.5 14.5 19
    endloop
  endfacet
  facet normal 0 -1 0
    outer loop
      vertex 5.5 14.5 19
      vertex 9.5 14.5 6
      vertex 9.5 14.5 19
    endloop
  endfacet
  facet normal 0 -1 -0
    outer loop
      vertex 9.5 14.5 6
      vertex 5.5 14.5 2
      vertex 26.5 14.5 6
    endloop
  endfacet
  facet normal 0 -1 0
    outer loop
      vertex 5.5 14.5 2
      vertex 9.5 14.5 6
      vertex 5.5 14.5 19
    endloop
  endfacet
  facet normal 0 -1 0
    outer loop
      vertex 26.5 14.5 6
      vertex 30.5 14.5 19
      vertex 26.5 14.5 19
    endloop
  endfacet
  facet normal 0 -1 0
    outer loop
      vertex 26.5 14.5 6
      vertex 30.5 14.5 2
      vertex 30.5 14.5 19
    endloop
  endfacet
  facet normal 0 -1 0
    outer loop
      vertex 30.5 14.5 2
      vertex 26.5 14.5 6
      vertex 5.5 14.5 2
    endloop
  endfacet
  facet normal -1 0 0
    outer loop
      vertex 0 80 0
      vertex 0 73 15.5
      vertex 0 80 19
    endloop
  endfacet
  facet normal -1 0 0
    outer loop
      vertex 0 80 0
      vertex 0 25 15.5
      vertex 0 73 15.5
    endloop
  endfacet
  facet normal -1 0 0
    outer loop
      vertex 0 0 0
      vertex 0 25 15.5
      vertex 0 80 0
    endloop
  endfacet
  facet normal -1 0 0
    outer loop
      vertex 0 0 19
      vertex 0 25 15.5
      vertex 0 0 0
    endloop
  endfacet
  facet normal -1 0 0
    outer loop
      vertex 0 25 15.5
      vertex 0 0 19
      vertex 0 25 19
    endloop
  endfacet
  facet normal -1 -0 0
    outer loop
      vertex 0 80 19
      vertex 0 73 15.5
      vertex 0 73 19
    endloop
  endfacet
  facet normal 0 0 1
    outer loop
      vertex 29 78 2
      vertex 7 78 2
      vertex 29 73 2
    endloop
  endfacet
  facet normal -0 0 1
    outer loop
      vertex 29 73 2
      vertex 34 25 2
      vertex 34 73 2
    endloop
  endfacet
  facet normal 0 0 1
    outer loop
      vertex 7 73 2
      vertex 29 73 2
      vertex 7 78 2
    endloop
  endfacet
  facet normal 0 0 1
    outer loop
      vertex 29 73 2
      vertex 7 73 2
      vertex 34 25 2
    endloop
  endfacet
  facet normal 0 0 1
    outer loop
      vertex 2 25 2
      vertex 7 73 2
      vertex 2 73 2
    endloop
  endfacet
  facet normal 0 0 1
    outer loop
      vertex 7 73 2
      vertex 2 25 2
      vertex 34 25 2
    endloop
  endfacet
  facet normal -0 0 1
    outer loop
      vertex 2.5 5 2
      vertex 5.5 2.5 2
      vertex 5.5 5 2
    endloop
  endfacet
  facet normal 0 0 1
    outer loop
      vertex 5.5 2.5 2
      vertex 2.5 5 2
      vertex 2.5 2.5 2
    endloop
  endfacet
  facet normal 0 0 1
    outer loop
      vertex 5.5 5 2
      vertex 30.5 5 2
      vertex 30.5 14.5 2
    endloop
  endfacet
  facet normal 0 0 1
    outer loop
      vertex 30.5 5 2
      vertex 5.5 5 2
      vertex 30.5 2.5 2
    endloop
  endfacet
  facet normal 0 0 1
    outer loop
      vertex 5.5 5 2
      vertex 30.5 14.5 2
      vertex 5.5 14.5 2
    endloop
  endfacet
  facet normal 0 0 1
    outer loop
      vertex 5.5 2.5 2
      vertex 30.5 2.5 2
      vertex 5.5 5 2
    endloop
  endfacet
  facet normal 0 0 1
    outer loop
      vertex 30.5 2.5 2
      vertex 5.5 2.5 2
      vertex 30.5 0 2
    endloop
  endfacet
  facet normal 0 0 1
    outer loop
      vertex 30.5 0 2
      vertex 5.5 2.5 2
      vertex 5.5 0 2
    endloop
  endfacet
  facet normal -0 0 1
    outer loop
      vertex 30.5 5 2
      vertex 33.5 2.5 2
      vertex 33.5 5 2
    endloop
  endfacet
  facet normal 0 0 1
    outer loop
      vertex 33.5 2.5 2
      vertex 30.5 5 2
      vertex 30.5 2.5 2
    endloop
  endfacet
  facet normal 0 1 0
    outer loop
      vertex 36 80 19
      vertex 19.5 80 8.5
      vertex 19.5 80 19
    endloop
  endfacet
  facet normal 0 1 0
    outer loop
      vertex 19.5 80 8.5
      vertex 36 80 0
      vertex 16.5 80 8.5
    endloop
  endfacet
  facet normal 0 1 -0
    outer loop
      vertex 36 80 0
      vertex 19.5 80 8.5
      vertex 36 80 19
    endloop
  endfacet
  facet normal 0 1 -0
    outer loop
      vertex 16.5 80 8.5
      vertex 0 80 19
      vertex 16.5 80 19
    endloop
  endfacet
  facet normal 0 1 0
    outer loop
      vertex 16.5 80 8.5
      vertex 0 80 0
      vertex 0 80 19
    endloop
  endfacet
  facet normal 0 1 0
    outer loop
      vertex 0 80 0
      vertex 16.5 80 8.5
      vertex 36 80 0
    endloop
  endfacet
  facet normal 0 0 1
    outer loop
      vertex 36 80 19
      vertex 34 76.5 19
      vertex 36 73 19
    endloop
  endfacet
  facet normal 0 0 1
    outer loop
      vertex 36 80 19
      vertex 33.9095 77.013 19
      vertex 34 76.5 19
    endloop
  endfacet
  facet normal 0 0 1
    outer loop
      vertex 36 80 19
      vertex 33.6491 77.4642 19
      vertex 33.9095 77.013 19
    endloop
  endfacet
  facet normal 0 0 1
    outer loop
      vertex 36 80 19
      vertex 33.25 77.799 19
      vertex 33.6491 77.4642 19
    endloop
  endfacet
  facet normal 0 0 1
    outer loop
      vertex 36 80 19
      vertex 32.7605 77.9772 19
      vertex 33.25 77.799 19
    endloop
  endfacet
  facet normal 0 0 1
    outer loop
      vertex 36 80 19
      vertex 32.2395 77.9772 19
      vertex 32.7605 77.9772 19
    endloop
  endfacet
  facet normal -0 0 1
    outer loop
      vertex 29 78 19
      vertex 32.2395 77.9772 19
      vertex 36 80 19
    endloop
  endfacet
  facet normal 0 0 1
    outer loop
      vertex 31.0905 77.013 19
      vertex 29 78 19
      vertex 31 76.5 19
    endloop
  endfacet
  facet normal 0 0 1
    outer loop
      vertex 31.3509 77.4642 19
      vertex 29 78 19
      vertex 31.0905 77.013 19
    endloop
  endfacet
  facet normal 0 0 1
    outer loop
      vertex 31.75 77.799 19
      vertex 29 78 19
      vertex 31.3509 77.4642 19
    endloop
  endfacet
  facet normal 0 0 1
    outer loop
      vertex 32.2395 77.9772 19
      vertex 29 78 19
      vertex 31.75 77.799 19
    endloop
  endfacet
  facet normal -0 0 1
    outer loop
      vertex 19.5 80 19
      vertex 29 78 19
      vertex 36 80 19
    endloop
  endfacet
  facet normal 0 0 1
    outer loop
      vertex 29 78 19
      vertex 19.5 80 19
      vertex 19.5 78 19
    endloop
  endfacet
  facet normal -0 0 1
    outer loop
      vertex 33.9095 75.987 19
      vertex 36 73 19
      vertex 34 76.5 19
    endloop
  endfacet
  facet normal -0 0 1
    outer loop
      vertex 33.6491 75.5358 19
      vertex 36 73 19
      vertex 33.9095 75.987 19
    endloop
  endfacet
  facet normal -0 0 1
    outer loop
      vertex 33.25 75.201 19
      vertex 36 73 19
      vertex 33.6491 75.5358 19
    endloop
  endfacet
  facet normal -0 0 1
    outer loop
      vertex 32.7605 75.0228 19
      vertex 36 73 19
      vertex 33.25 75.201 19
    endloop
  endfacet
  facet normal -0 0 1
    outer loop
      vertex 32.2395 75.0228 19
      vertex 36 73 19
      vertex 32.7605 75.0228 19
    endloop
  endfacet
  facet normal 0 0 1
    outer loop
      vertex 29 73 19
      vertex 32.2395 75.0228 19
      vertex 31.75 75.201 19
    endloop
  endfacet
  facet normal 0 0 1
    outer loop
      vertex 29 78 19
      vertex 31.0905 75.987 19
      vertex 31 76.5 19
    endloop
  endfacet
  facet normal 0 0 1
    outer loop
      vertex 29 73 19
      vertex 31.0905 75.987 19
      vertex 29 78 19
    endloop
  endfacet
  facet normal 0 0 1
    outer loop
      vertex 32.2395 75.0228 19
      vertex 29 73 19
      vertex 36 73 19
    endloop
  endfacet
  facet normal 0 0 1
    outer loop
      vertex 31.3509 75.5358 19
      vertex 29 73 19
      vertex 31.75 75.201 19
    endloop
  endfacet
  facet normal 0 0 1
    outer loop
      vertex 31.0905 75.987 19
      vertex 29 73 19
      vertex 31.3509 75.5358 19
    endloop
  endfacet
  facet normal 0 0 1
    outer loop
      vertex 16.5 80 19
      vertex 7 78 19
      vertex 16.5 78 19
    endloop
  endfacet
  facet normal 0 0 1
    outer loop
      vertex 4.90954 75.987 19
      vertex 7 78 19
      vertex 5 76.5 19
    endloop
  endfacet
  facet normal 0 0 1
    outer loop
      vertex 7 78 19
      vertex 4.90954 77.013 19
      vertex 5 76.5 19
    endloop
  endfacet
  facet normal 0 0 1
    outer loop
      vertex 7 78 19
      vertex 4.64907 77.4642 19
      vertex 4.90954 77.013 19
    endloop
  endfacet
  facet normal 0 0 1
    outer loop
      vertex 7 78 19
      vertex 4.25 77.799 19
      vertex 4.64907 77.4642 19
    endloop
  endfacet
  facet normal -0 0 1
    outer loop
      vertex 0 80 19
      vertex 7 78 19
      vertex 16.5 80 19
    endloop
  endfacet
  facet normal 0 0 1
    outer loop
      vertex 7 78 19
      vertex 3.76047 77.9772 19
      vertex 4.25 77.799 19
    endloop
  endfacet
  facet normal 0 0 1
    outer loop
      vertex 7 78 19
      vertex 0 80 19
      vertex 3.76047 77.9772 19
    endloop
  endfacet
  facet normal 0 0 1
    outer loop
      vertex 2.09046 77.013 19
      vertex 0 80 19
      vertex 2 76.5 19
    endloop
  endfacet
  facet normal 0 0 1
    outer loop
      vertex 2.35093 77.4642 19
      vertex 0 80 19
      vertex 2.09046 77.013 19
    endloop
  endfacet
  facet normal 0 0 1
    outer loop
      vertex 2.75 77.799 19
      vertex 0 80 19
      vertex 2.35093 77.4642 19
    endloop
  endfacet
  facet normal 0 0 1
    outer loop
      vertex 3.23953 77.9772 19
      vertex 0 80 19
      vertex 2.75 77.799 19
    endloop
  endfacet
  facet normal 0 0 1
    outer loop
      vertex 3.76047 77.9772 19
      vertex 0 80 19
      vertex 3.23953 77.9772 19
    endloop
  endfacet
  facet normal 0 0 1
    outer loop
      vertex 7 78 19
      vertex 4.90954 75.987 19
      vertex 7 73 19
    endloop
  endfacet
  facet normal -0 0 1
    outer loop
      vertex 4.64907 75.5358 19
      vertex 7 73 19
      vertex 4.90954 75.987 19
    endloop
  endfacet
  facet normal -0 0 1
    outer loop
      vertex 4.25 75.201 19
      vertex 7 73 19
      vertex 4.64907 75.5358 19
    endloop
  endfacet
  facet normal -0 0 1
    outer loop
      vertex 3.76047 75.0228 19
      vertex 7 73 19
      vertex 4.25 75.201 19
    endloop
  endfacet
  facet normal -0 0 1
    outer loop
      vertex 3.23953 75.0228 19
      vertex 7 73 19
      vertex 3.76047 75.0228 19
    endloop
  endfacet
  facet normal 0 0 1
    outer loop
      vertex 0 73 19
      vertex 3.23953 75.0228 19
      vertex 2.75 75.201 19
    endloop
  endfacet
  facet normal 0 0 1
    outer loop
      vertex 0 73 19
      vertex 2 76.5 19
      vertex 0 80 19
    endloop
  endfacet
  facet normal 0 0 1
    outer loop
      vertex 3.23953 75.0228 19
      vertex 0 73 19
      vertex 7 73 19
    endloop
  endfacet
  facet normal 0 0 1
    outer loop
      vertex 2.35093 75.5358 19
      vertex 0 73 19
      vertex 2.75 75.201 19
    endloop
  endfacet
  facet normal 0 0 1
    outer loop
      vertex 2.09046 75.987 19
      vertex 0 73 19
      vertex 2.35093 75.5358 19
    endloop
  endfacet
  facet normal 0 0 1
    outer loop
      vertex 2 76.5 19
      vertex 0 73 19
      vertex 2.09046 75.987 19
    endloop
  endfacet
  facet normal 0 -1 0
    outer loop
      vertex 7 78 19
      vertex 16.5 78 8.5
      vertex 16.5 78 19
    endloop
  endfacet
  facet normal 0 -1 -0
    outer loop
      vertex 16.5 78 8.5
      vertex 7 78 2
      vertex 19.5 78 8.5
    endloop
  endfacet
  facet normal 0 -1 0
    outer loop
      vertex 7 78 2
      vertex 16.5 78 8.5
      vertex 7 78 19
    endloop
  endfacet
  facet normal 0 -1 0
    outer loop
      vertex 19.5 78 8.5
      vertex 29 78 19
      vertex 19.5 78 19
    endloop
  endfacet
  facet normal 0 -1 0
    outer loop
      vertex 19.5 78 8.5
      vertex 29 78 2
      vertex 29 78 19
    endloop
  endfacet
  facet normal 0 -1 0
    outer loop
      vertex 29 78 2
      vertex 19.5 78 8.5
      vertex 7 78 2
    endloop
  endfacet
  facet normal 1 -0 0
    outer loop
      vertex 7 73 19
      vertex 7 78 2
      vertex 7 78 19
    endloop
  endfacet
  facet normal 1 0 0
    outer loop
      vertex 7 78 2
      vertex 7 73 19
      vertex 7 73 2
    endloop
  endfacet
  facet normal 0 -1 0
    outer loop
      vertex 2 73 15.5
      vertex 0 73 19
      vertex 0 73 15.5
    endloop
  endfacet
  facet normal 0 -1 0
    outer loop
      vertex 0 73 19
      vertex 2 73 15.5
      vertex 7 73 19
    endloop
  endfacet
  facet normal 0 -1 0
    outer loop
      vertex 7 73 2
      vertex 2 73 15.5
      vertex 2 73 2
    endloop
  endfacet
  facet normal 0 -1 0
    outer loop
      vertex 2 73 15.5
      vertex 7 73 2
      vertex 7 73 19
    endloop
  endfacet
  facet normal -1 0 0
    outer loop
      vertex 29 73 2
      vertex 29 78 19
      vertex 29 78 2
    endloop
  endfacet
  facet normal -1 -0 0
    outer loop
      vertex 29 78 19
      vertex 29 73 2
      vertex 29 73 19
    endloop
  endfacet
  facet normal 0 -1 0
    outer loop
      vertex 29 73 19
      vertex 34 73 15.5
      vertex 36 73 19
    endloop
  endfacet
  facet normal 0 -1 0
    outer loop
      vertex 29 73 2
      vertex 34 73 15.5
      vertex 29 73 19
    endloop
  endfacet
  facet normal 0 -1 -0
    outer loop
      vertex 34 73 15.5
      vertex 29 73 2
      vertex 34 73 2
    endloop
  endfacet
  facet normal 0 -1 -0
    outer loop
      vertex 36 73 19
      vertex 34 73 15.5
      vertex 36 73 15.5
    endloop
  endfacet
  facet normal 0 0 1
    outer loop
      vertex 9.5 25 19
      vertex 6.5 20.25 19
      vertex 9.5 14.5 19
    endloop
  endfacet
  facet normal 0 0 1
    outer loop
      vertex 9.5 25 19
      vertex 6.40954 20.763 19
      vertex 6.5 20.25 19
    endloop
  endfacet
  facet normal 0 0 1
    outer loop
      vertex 9.5 25 19
      vertex 6.14907 21.2142 19
      vertex 6.40954 20.763 19
    endloop
  endfacet
  facet normal 0 0 1
    outer loop
      vertex 9.5 25 19
      vertex 5.75 21.549 19
      vertex 6.14907 21.2142 19
    endloop
  endfacet
  facet normal 0 0 1
    outer loop
      vertex 9.5 25 19
      vertex 5.26047 21.7272 19
      vertex 5.75 21.549 19
    endloop
  endfacet
  facet normal 0 0 1
    outer loop
      vertex 9.5 25 19
      vertex 4.73953 21.7272 19
      vertex 5.26047 21.7272 19
    endloop
  endfacet
  facet normal -0 0 1
    outer loop
      vertex 0 25 19
      vertex 4.73953 21.7272 19
      vertex 9.5 25 19
    endloop
  endfacet
  facet normal 0 0 1
    outer loop
      vertex 0 0 19
      vertex 2.5 5 19
      vertex 0 25 19
    endloop
  endfacet
  facet normal 0 0 1
    outer loop
      vertex 3.59046 19.737 19
      vertex 0 25 19
      vertex 2.5 5 19
    endloop
  endfacet
  facet normal 0 0 1
    outer loop
      vertex 3.59046 20.763 19
      vertex 0 25 19
      vertex 3.5 20.25 19
    endloop
  endfacet
  facet normal 0 0 1
    outer loop
      vertex 3.85093 21.2142 19
      vertex 0 25 19
      vertex 3.59046 20.763 19
    endloop
  endfacet
  facet normal 0 0 1
    outer loop
      vertex 4.25 21.549 19
      vertex 0 25 19
      vertex 3.85093 21.2142 19
    endloop
  endfacet
  facet normal 0 0 1
    outer loop
      vertex 4.73953 21.7272 19
      vertex 0 25 19
      vertex 4.25 21.549 19
    endloop
  endfacet
  facet normal -0 0 1
    outer loop
      vertex 6.40954 19.737 19
      vertex 9.5 14.5 19
      vertex 6.5 20.25 19
    endloop
  endfacet
  facet normal -0 0 1
    outer loop
      vertex 6.14907 19.2858 19
      vertex 9.5 14.5 19
      vertex 6.40954 19.737 19
    endloop
  endfacet
  facet normal -0 0 1
    outer loop
      vertex 5.75 18.951 19
      vertex 9.5 14.5 19
      vertex 6.14907 19.2858 19
    endloop
  endfacet
  facet normal 0 0 1
    outer loop
      vertex 5.75 18.951 19
      vertex 5.5 14.5 19
      vertex 9.5 14.5 19
    endloop
  endfacet
  facet normal -0 0 1
    outer loop
      vertex 5.26047 18.7728 19
      vertex 5.5 14.5 19
      vertex 5.75 18.951 19
    endloop
  endfacet
  facet normal -0 0 1
    outer loop
      vertex 4.73953 18.7728 19
      vertex 5.5 14.5 19
      vertex 5.26047 18.7728 19
    endloop
  endfacet
  facet normal 0 0 1
    outer loop
      vertex 4.25 18.951 19
      vertex 5.5 14.5 19
      vertex 4.73953 18.7728 19
    endloop
  endfacet
  facet normal 0 0 1
    outer loop
      vertex 3.85093 19.2858 19
      vertex 5.5 14.5 19
      vertex 4.25 18.951 19
    endloop
  endfacet
  facet normal 0 0 1
    outer loop
      vertex 5.5 14.5 19
      vertex 3.85093 19.2858 19
      vertex 2.5 5 19
    endloop
  endfacet
  facet normal 0 0 1
    outer loop
      vertex 2.5 5 19
      vertex 3.85093 19.2858 19
      vertex 3.59046 19.737 19
    endloop
  endfacet
  facet normal 0 0 1
    outer loop
      vertex 0 25 19
      vertex 3.59046 19.737 19
      vertex 3.5 20.25 19
    endloop
  endfacet
  facet normal 0 0 1
    outer loop
      vertex 5.5 14.5 19
      vertex 2.5 5 19
      vertex 5.5 5 19
    endloop
  endfacet
  facet normal -0 0 1
    outer loop
      vertex 2.5 2.5 19
      vertex 5.5 0 19
      vertex 5.5 2.5 19
    endloop
  endfacet
  facet normal 0 0 1
    outer loop
      vertex 2.5 2.5 19
      vertex 0 0 19
      vertex 5.5 0 19
    endloop
  endfacet
  facet normal 0 0 1
    outer loop
      vertex 2.5 5 19
      vertex 0 0 19
      vertex 2.5 2.5 19
    endloop
  endfacet
  facet normal 1 -0 0
    outer loop
      vertex 5.5 0 19
      vertex 5.5 2.5 2
      vertex 5.5 2.5 19
    endloop
  endfacet
  facet normal 1 0 0
    outer loop
      vertex 5.5 2.5 2
      vertex 5.5 0 19
      vertex 5.5 0 2
    endloop
  endfacet
  facet normal 0 1 -0
    outer loop
      vertex 5.5 2.5 2
      vertex 2.5 2.5 19
      vertex 5.5 2.5 19
    endloop
  endfacet
  facet normal 0 1 0
    outer loop
      vertex 2.5 2.5 19
      vertex 5.5 2.5 2
      vertex 2.5 2.5 2
    endloop
  endfacet
  facet normal 1 -0 0
    outer loop
      vertex 2.5 2.5 19
      vertex 2.5 5 2
      vertex 2.5 5 19
    endloop
  endfacet
  facet normal 1 0 0
    outer loop
      vertex 2.5 5 2
      vertex 2.5 2.5 19
      vertex 2.5 2.5 2
    endloop
  endfacet
  facet normal 1 -0 0
    outer loop
      vertex 5.5 5 19
      vertex 5.5 14.5 2
      vertex 5.5 14.5 19
    endloop
  endfacet
  facet normal 1 0 0
    outer loop
      vertex 5.5 14.5 2
      vertex 5.5 5 19
      vertex 5.5 5 2
    endloop
  endfacet
  facet normal 0 -1 0
    outer loop
      vertex 2.5 5 2
      vertex 5.5 5 19
      vertex 2.5 5 19
    endloop
  endfacet
  facet normal 0 -1 -0
    outer loop
      vertex 5.5 5 19
      vertex 2.5 5 2
      vertex 5.5 5 2
    endloop
  endfacet
  facet normal 1 -0 0
    outer loop
      vertex 9.5 14.5 19
      vertex 9.5 25 6
      vertex 9.5 25 19
    endloop
  endfacet
  facet normal 1 0 0
    outer loop
      vertex 9.5 25 6
      vertex 9.5 14.5 19
      vertex 9.5 14.5 6
    endloop
  endfacet
  facet normal -0 0 1
    outer loop
      vertex 9.5 25 6
      vertex 26.5 14.5 6
      vertex 26.5 25 6
    endloop
  endfacet
  facet normal 0 0 1
    outer loop
      vertex 26.5 14.5 6
      vertex 9.5 25 6
      vertex 9.5 14.5 6
    endloop
  endfacet
  facet normal -0 0 1
    outer loop
      vertex 0 73 15.5
      vertex 2 25 15.5
      vertex 2 73 15.5
    endloop
  endfacet
  facet normal 0 0 1
    outer loop
      vertex 2 25 15.5
      vertex 0 73 15.5
      vertex 0 25 15.5
    endloop
  endfacet
  facet normal 1 -0 0
    outer loop
      vertex 2 25 15.5
      vertex 2 73 2
      vertex 2 73 15.5
    endloop
  endfacet
  facet normal 1 0 0
    outer loop
      vertex 2 73 2
      vertex 2 25 15.5
      vertex 2 25 2
    endloop
  endfacet
  facet normal -1 0 0
    outer loop
      vertex 34 25 2
      vertex 34 73 15.5
      vertex 34 73 2
    endloop
  endfacet
  facet normal -1 -0 0
    outer loop
      vertex 34 73 15.5
      vertex 34 25 2
      vertex 34 25 15.5
    endloop
  endfacet
  facet normal -0 0 1
    outer loop
      vertex 34 73 15.5
      vertex 36 25 15.5
      vertex 36 73 15.5
    endloop
  endfacet
  facet normal 0 0 1
    outer loop
      vertex 36 25 15.5
      vertex 34 73 15.5
      vertex 34 25 15.5
    endloop
  endfacet
  facet normal -0.984806 -0.173656 0
    outer loop
      vertex 6.5 20.25 0
      vertex 6.40954 20.763 19
      vertex 6.40954 20.763 0
    endloop
  endfacet
  facet normal -0.984806 -0.173656 0
    outer loop
      vertex 6.40954 20.763 19
      vertex 6.5 20.25 0
      vertex 6.5 20.25 19
    endloop
  endfacet
  facet normal 0.342064 -0.939677 0
    outer loop
      vertex 4.25 21.549 0
      vertex 4.73953 21.7272 19
      vertex 4.25 21.549 19
    endloop
  endfacet
  facet normal 0.342064 -0.939677 0
    outer loop
      vertex 4.73953 21.7272 19
      vertex 4.25 21.549 0
      vertex 4.73953 21.7272 0
    endloop
  endfacet
  facet normal -0.342064 0.939677 0
    outer loop
      vertex 5.75 18.951 0
      vertex 5.26047 18.7728 19
      vertex 5.75 18.951 19
    endloop
  endfacet
  facet normal -0.342064 0.939677 0
    outer loop
      vertex 5.26047 18.7728 19
      vertex 5.75 18.951 0
      vertex 5.26047 18.7728 0
    endloop
  endfacet
  facet normal -0.866051 0.499956 0
    outer loop
      vertex 6.14907 19.2858 0
      vertex 6.40954 19.737 19
      vertex 6.40954 19.737 0
    endloop
  endfacet
  facet normal -0.866051 0.499956 0
    outer loop
      vertex 6.40954 19.737 19
      vertex 6.14907 19.2858 0
      vertex 6.14907 19.2858 19
    endloop
  endfacet
  facet normal -0.642721 -0.766101 0
    outer loop
      vertex 5.75 21.549 0
      vertex 6.14907 21.2142 19
      vertex 5.75 21.549 19
    endloop
  endfacet
  facet normal -0.642721 -0.766101 -0
    outer loop
      vertex 6.14907 21.2142 19
      vertex 5.75 21.549 0
      vertex 6.14907 21.2142 0
    endloop
  endfacet
  facet normal -0.866051 -0.499956 0
    outer loop
      vertex 6.40954 20.763 0
      vertex 6.14907 21.2142 19
      vertex 6.14907 21.2142 0
    endloop
  endfacet
  facet normal -0.866051 -0.499956 0
    outer loop
      vertex 6.14907 21.2142 19
      vertex 6.40954 20.763 0
      vertex 6.40954 20.763 19
    endloop
  endfacet
  facet normal -0.342064 -0.939677 0
    outer loop
      vertex 5.26047 21.7272 0
      vertex 5.75 21.549 19
      vertex 5.26047 21.7272 19
    endloop
  endfacet
  facet normal -0.342064 -0.939677 -0
    outer loop
      vertex 5.75 21.549 19
      vertex 5.26047 21.7272 0
      vertex 5.75 21.549 0
    endloop
  endfacet
  facet normal 0.866051 -0.499956 0
    outer loop
      vertex 3.59046 20.763 19
      vertex 3.85093 21.2142 0
      vertex 3.85093 21.2142 19
    endloop
  endfacet
  facet normal 0.866051 -0.499956 0
    outer loop
      vertex 3.85093 21.2142 0
      vertex 3.59046 20.763 19
      vertex 3.59046 20.763 0
    endloop
  endfacet
  facet normal 0.984806 -0.173656 0
    outer loop
      vertex 3.5 20.25 19
      vertex 3.59046 20.763 0
      vertex 3.59046 20.763 19
    endloop
  endfacet
  facet normal 0.984806 -0.173656 0
    outer loop
      vertex 3.59046 20.763 0
      vertex 3.5 20.25 19
      vertex 3.5 20.25 0
    endloop
  endfacet
  facet normal 0.642721 -0.766101 0
    outer loop
      vertex 3.85093 21.2142 0
      vertex 4.25 21.549 19
      vertex 3.85093 21.2142 19
    endloop
  endfacet
  facet normal 0.642721 -0.766101 0
    outer loop
      vertex 4.25 21.549 19
      vertex 3.85093 21.2142 0
      vertex 4.25 21.549 0
    endloop
  endfacet
  facet normal -0.984806 0.173656 0
    outer loop
      vertex 6.40954 19.737 0
      vertex 6.5 20.25 19
      vertex 6.5 20.25 0
    endloop
  endfacet
  facet normal -0.984806 0.173656 0
    outer loop
      vertex 6.5 20.25 19
      vertex 6.40954 19.737 0
      vertex 6.40954 19.737 19
    endloop
  endfacet
  facet normal 0 -1 0
    outer loop
      vertex 4.73953 21.7272 0
      vertex 5.26047 21.7272 19
      vertex 4.73953 21.7272 19
    endloop
  endfacet
  facet normal 0 -1 -0
    outer loop
      vertex 5.26047 21.7272 19
      vertex 4.73953 21.7272 0
      vertex 5.26047 21.7272 0
    endloop
  endfacet
  facet normal 0.984806 0.173656 0
    outer loop
      vertex 3.59046 19.737 19
      vertex 3.5 20.25 0
      vertex 3.5 20.25 19
    endloop
  endfacet
  facet normal 0.984806 0.173656 0
    outer loop
      vertex 3.5 20.25 0
      vertex 3.59046 19.737 19
      vertex 3.59046 19.737 0
    endloop
  endfacet
  facet normal -0.642721 0.766101 0
    outer loop
      vertex 6.14907 19.2858 0
      vertex 5.75 18.951 19
      vertex 6.14907 19.2858 19
    endloop
  endfacet
  facet normal -0.642721 0.766101 0
    outer loop
      vertex 5.75 18.951 19
      vertex 6.14907 19.2858 0
      vertex 5.75 18.951 0
    endloop
  endfacet
  facet normal 0.342064 0.939677 -0
    outer loop
      vertex 4.73953 18.7728 0
      vertex 4.25 18.951 19
      vertex 4.73953 18.7728 19
    endloop
  endfacet
  facet normal 0.342064 0.939677 0
    outer loop
      vertex 4.25 18.951 19
      vertex 4.73953 18.7728 0
      vertex 4.25 18.951 0
    endloop
  endfacet
  facet normal 0.642721 0.766101 -0
    outer loop
      vertex 4.25 18.951 0
      vertex 3.85093 19.2858 19
      vertex 4.25 18.951 19
    endloop
  endfacet
  facet normal 0.642721 0.766101 0
    outer loop
      vertex 3.85093 19.2858 19
      vertex 4.25 18.951 0
      vertex 3.85093 19.2858 0
    endloop
  endfacet
  facet normal 0.866051 0.499956 0
    outer loop
      vertex 3.85093 19.2858 19
      vertex 3.59046 19.737 0
      vertex 3.59046 19.737 19
    endloop
  endfacet
  facet normal 0.866051 0.499956 0
    outer loop
      vertex 3.59046 19.737 0
      vertex 3.85093 19.2858 19
      vertex 3.85093 19.2858 0
    endloop
  endfacet
  facet normal 0 1 -0
    outer loop
      vertex 5.26047 18.7728 0
      vertex 4.73953 18.7728 19
      vertex 5.26047 18.7728 19
    endloop
  endfacet
  facet normal 0 1 0
    outer loop
      vertex 4.73953 18.7728 19
      vertex 5.26047 18.7728 0
      vertex 4.73953 18.7728 0
    endloop
  endfacet
  facet normal -0.984793 -0.173731 0
    outer loop
      vertex 32.5 20.25 0
      vertex 32.4095 20.763 19
      vertex 32.4095 20.763 0
    endloop
  endfacet
  facet normal -0.984793 -0.173731 0
    outer loop
      vertex 32.4095 20.763 19
      vertex 32.5 20.25 0
      vertex 32.5 20.25 19
    endloop
  endfacet
  facet normal 0.342082 -0.93967 0
    outer loop
      vertex 30.25 21.549 0
      vertex 30.7395 21.7272 19
      vertex 30.25 21.549 19
    endloop
  endfacet
  facet normal 0.342082 -0.93967 0
    outer loop
      vertex 30.7395 21.7272 19
      vertex 30.25 21.549 0
      vertex 30.7395 21.7272 0
    endloop
  endfacet
  facet normal -0.342082 0.93967 0
    outer loop
      vertex 31.75 18.951 0
      vertex 31.2605 18.7728 19
      vertex 31.75 18.951 19
    endloop
  endfacet
  facet normal -0.342082 0.93967 0
    outer loop
      vertex 31.2605 18.7728 19
      vertex 31.75 18.951 0
      vertex 31.2605 18.7728 0
    endloop
  endfacet
  facet normal -0.642692 -0.766124 0
    outer loop
      vertex 31.75 21.549 0
      vertex 32.1491 21.2142 19
      vertex 31.75 21.549 19
    endloop
  endfacet
  facet normal -0.642692 -0.766124 -0
    outer loop
      vertex 32.1491 21.2142 19
      vertex 31.75 21.549 0
      vertex 32.1491 21.2142 0
    endloop
  endfacet
  facet normal -0.866109 -0.499855 0
    outer loop
      vertex 32.4095 20.763 0
      vertex 32.1491 21.2142 19
      vertex 32.1491 21.2142 0
    endloop
  endfacet
  facet normal -0.866109 -0.499855 0
    outer loop
      vertex 32.1491 21.2142 19
      vertex 32.4095 20.763 0
      vertex 32.4095 20.763 19
    endloop
  endfacet
  facet normal -0.342082 -0.93967 0
    outer loop
      vertex 31.2605 21.7272 0
      vertex 31.75 21.549 19
      vertex 31.2605 21.7272 19
    endloop
  endfacet
  facet normal -0.342082 -0.93967 -0
    outer loop
      vertex 31.75 21.549 19
      vertex 31.2605 21.7272 0
      vertex 31.75 21.549 0
    endloop
  endfacet
  facet normal 0.866109 -0.499855 0
    outer loop
      vertex 29.5905 20.763 19
      vertex 29.8509 21.2142 0
      vertex 29.8509 21.2142 19
    endloop
  endfacet
  facet normal 0.866109 -0.499855 0
    outer loop
      vertex 29.8509 21.2142 0
      vertex 29.5905 20.763 19
      vertex 29.5905 20.763 0
    endloop
  endfacet
  facet normal 0.984793 -0.173731 0
    outer loop
      vertex 29.5 20.25 19
      vertex 29.5905 20.763 0
      vertex 29.5905 20.763 19
    endloop
  endfacet
  facet normal 0.984793 -0.173731 0
    outer loop
      vertex 29.5905 20.763 0
      vertex 29.5 20.25 19
      vertex 29.5 20.25 0
    endloop
  endfacet
  facet normal 0.642692 -0.766124 0
    outer loop
      vertex 29.8509 21.2142 0
      vertex 30.25 21.549 19
      vertex 29.8509 21.2142 19
    endloop
  endfacet
  facet normal 0.642692 -0.766124 0
    outer loop
      vertex 30.25 21.549 19
      vertex 29.8509 21.2142 0
      vertex 30.25 21.549 0
    endloop
  endfacet
  facet normal -0.984793 0.173731 0
    outer loop
      vertex 32.4095 19.737 0
      vertex 32.5 20.25 19
      vertex 32.5 20.25 0
    endloop
  endfacet
  facet normal -0.984793 0.173731 0
    outer loop
      vertex 32.5 20.25 19
      vertex 32.4095 19.737 0
      vertex 32.4095 19.737 19
    endloop
  endfacet
  facet normal 0 -1 0
    outer loop
      vertex 30.7395 21.7272 0
      vertex 31.2605 21.7272 19
      vertex 30.7395 21.7272 19
    endloop
  endfacet
  facet normal 0 -1 -0
    outer loop
      vertex 31.2605 21.7272 19
      vertex 30.7395 21.7272 0
      vertex 31.2605 21.7272 0
    endloop
  endfacet
  facet normal 0.984793 0.173731 0
    outer loop
      vertex 29.5905 19.737 19
      vertex 29.5 20.25 0
      vertex 29.5 20.25 19
    endloop
  endfacet
  facet normal 0.984793 0.173731 0
    outer loop
      vertex 29.5 20.25 0
      vertex 29.5905 19.737 19
      vertex 29.5905 19.737 0
    endloop
  endfacet
  facet normal -0.642692 0.766124 0
    outer loop
      vertex 32.1491 19.2858 0
      vertex 31.75 18.951 19
      vertex 32.1491 19.2858 19
    endloop
  endfacet
  facet normal -0.642692 0.766124 0
    outer loop
      vertex 31.75 18.951 19
      vertex 32.1491 19.2858 0
      vertex 31.75 18.951 0
    endloop
  endfacet
  facet normal 0.866109 0.499855 0
    outer loop
      vertex 29.8509 19.2858 19
      vertex 29.5905 19.737 0
      vertex 29.5905 19.737 19
    endloop
  endfacet
  facet normal 0.866109 0.499855 0
    outer loop
      vertex 29.5905 19.737 0
      vertex 29.8509 19.2858 19
      vertex 29.8509 19.2858 0
    endloop
  endfacet
  facet normal -0.866109 0.499855 0
    outer loop
      vertex 32.1491 19.2858 0
      vertex 32.4095 19.737 19
      vertex 32.4095 19.737 0
    endloop
  endfacet
  facet normal -0.866109 0.499855 0
    outer loop
      vertex 32.4095 19.737 19
      vertex 32.1491 19.2858 0
      vertex 32.1491 19.2858 19
    endloop
  endfacet
  facet normal 0.342082 0.93967 -0
    outer loop
      vertex 30.7395 18.7728 0
      vertex 30.25 18.951 19
      vertex 30.7395 18.7728 19
    endloop
  endfacet
  facet normal 0.342082 0.93967 0
    outer loop
      vertex 30.25 18.951 19
      vertex 30.7395 18.7728 0
      vertex 30.25 18.951 0
    endloop
  endfacet
  facet normal 0.642692 0.766124 -0
    outer loop
      vertex 30.25 18.951 0
      vertex 29.8509 19.2858 19
      vertex 30.25 18.951 19
    endloop
  endfacet
  facet normal 0.642692 0.766124 0
    outer loop
      vertex 29.8509 19.2858 19
      vertex 30.25 18.951 0
      vertex 29.8509 19.2858 0
    endloop
  endfacet
  facet normal 0 1 -0
    outer loop
      vertex 31.2605 18.7728 0
      vertex 30.7395 18.7728 19
      vertex 31.2605 18.7728 19
    endloop
  endfacet
  facet normal 0 1 0
    outer loop
      vertex 30.7395 18.7728 19
      vertex 31.2605 18.7728 0
      vertex 30.7395 18.7728 0
    endloop
  endfacet
  facet normal -0.984806 -0.173656 0
    outer loop
      vertex 5 76.5 0
      vertex 4.90954 77.013 19
      vertex 4.90954 77.013 0
    endloop
  endfacet
  facet normal -0.984806 -0.173656 0
    outer loop
      vertex 4.90954 77.013 19
      vertex 5 76.5 0
      vertex 5 76.5 19
    endloop
  endfacet
  facet normal 0.342064 -0.939677 0
    outer loop
      vertex 2.75 77.799 0
      vertex 3.23953 77.9772 19
      vertex 2.75 77.799 19
    endloop
  endfacet
  facet normal 0.342064 -0.939677 0
    outer loop
      vertex 3.23953 77.9772 19
      vertex 2.75 77.799 0
      vertex 3.23953 77.9772 0
    endloop
  endfacet
  facet normal -0.342064 0.939677 0
    outer loop
      vertex 4.25 75.201 0
      vertex 3.76047 75.0228 19
      vertex 4.25 75.201 19
    endloop
  endfacet
  facet normal -0.342064 0.939677 0
    outer loop
      vertex 3.76047 75.0228 19
      vertex 4.25 75.201 0
      vertex 3.76047 75.0228 0
    endloop
  endfacet
  facet normal -0.642721 -0.766101 0
    outer loop
      vertex 4.25 77.799 0
      vertex 4.64907 77.4642 19
      vertex 4.25 77.799 19
    endloop
  endfacet
  facet normal -0.642721 -0.766101 -0
    outer loop
      vertex 4.64907 77.4642 19
      vertex 4.25 77.799 0
      vertex 4.64907 77.4642 0
    endloop
  endfacet
  facet normal -0.866051 -0.499956 0
    outer loop
      vertex 4.90954 77.013 0
      vertex 4.64907 77.4642 19
      vertex 4.64907 77.4642 0
    endloop
  endfacet
  facet normal -0.866051 -0.499956 0
    outer loop
      vertex 4.64907 77.4642 19
      vertex 4.90954 77.013 0
      vertex 4.90954 77.013 19
    endloop
  endfacet
  facet normal -0.342064 -0.939677 0
    outer loop
      vertex 3.76047 77.9772 0
      vertex 4.25 77.799 19
      vertex 3.76047 77.9772 19
    endloop
  endfacet
  facet normal -0.342064 -0.939677 -0
    outer loop
      vertex 4.25 77.799 19
      vertex 3.76047 77.9772 0
      vertex 4.25 77.799 0
    endloop
  endfacet
  facet normal 0.866051 -0.499956 0
    outer loop
      vertex 2.09046 77.013 19
      vertex 2.35093 77.4642 0
      vertex 2.35093 77.4642 19
    endloop
  endfacet
  facet normal 0.866051 -0.499956 0
    outer loop
      vertex 2.35093 77.4642 0
      vertex 2.09046 77.013 19
      vertex 2.09046 77.013 0
    endloop
  endfacet
  facet normal 0.984806 -0.173656 0
    outer loop
      vertex 2 76.5 19
      vertex 2.09046 77.013 0
      vertex 2.09046 77.013 19
    endloop
  endfacet
  facet normal 0.984806 -0.173656 0
    outer loop
      vertex 2.09046 77.013 0
      vertex 2 76.5 19
      vertex 2 76.5 0
    endloop
  endfacet
  facet normal 0.642721 -0.766101 0
    outer loop
      vertex 2.35093 77.4642 0
      vertex 2.75 77.799 19
      vertex 2.35093 77.4642 19
    endloop
  endfacet
  facet normal 0.642721 -0.766101 0
    outer loop
      vertex 2.75 77.799 19
      vertex 2.35093 77.4642 0
      vertex 2.75 77.799 0
    endloop
  endfacet
  facet normal -0.984806 0.173656 0
    outer loop
      vertex 4.90954 75.987 0
      vertex 5 76.5 19
      vertex 5 76.5 0
    endloop
  endfacet
  facet normal -0.984806 0.173656 0
    outer loop
      vertex 5 76.5 19
      vertex 4.90954 75.987 0
      vertex 4.90954 75.987 19
    endloop
  endfacet
  facet normal 0 -1 0
    outer loop
      vertex 3.23953 77.9772 0
      vertex 3.76047 77.9772 19
      vertex 3.23953 77.9772 19
    endloop
  endfacet
  facet normal 0 -1 -0
    outer loop
      vertex 3.76047 77.9772 19
      vertex 3.23953 77.9772 0
      vertex 3.76047 77.9772 0
    endloop
  endfacet
  facet normal 0.984806 0.173656 0
    outer loop
      vertex 2.09046 75.987 19
      vertex 2 76.5 0
      vertex 2 76.5 19
    endloop
  endfacet
  facet normal 0.984806 0.173656 0
    outer loop
      vertex 2 76.5 0
      vertex 2.09046 75.987 19
      vertex 2.09046 75.987 0
    endloop
  endfacet
  facet normal -0.642721 0.766101 0
    outer loop
      vertex 4.64907 75.5358 0
      vertex 4.25 75.201 19
      vertex 4.64907 75.5358 19
    endloop
  endfacet
  facet normal -0.642721 0.766101 0
    outer loop
      vertex 4.25 75.201 19
      vertex 4.64907 75.5358 0
      vertex 4.25 75.201 0
    endloop
  endfacet
  facet normal 0.866051 0.499956 0
    outer loop
      vertex 2.35093 75.5358 19
      vertex 2.09046 75.987 0
      vertex 2.09046 75.987 19
    endloop
  endfacet
  facet normal 0.866051 0.499956 0
    outer loop
      vertex 2.09046 75.987 0
      vertex 2.35093 75.5358 19
      vertex 2.35093 75.5358 0
    endloop
  endfacet
  facet normal -0.866051 0.499956 0
    outer loop
      vertex 4.64907 75.5358 0
      vertex 4.90954 75.987 19
      vertex 4.90954 75.987 0
    endloop
  endfacet
  facet normal -0.866051 0.499956 0
    outer loop
      vertex 4.90954 75.987 19
      vertex 4.64907 75.5358 0
      vertex 4.64907 75.5358 19
    endloop
  endfacet
  facet normal 0.342064 0.939677 -0
    outer loop
      vertex 3.23953 75.0228 0
      vertex 2.75 75.201 19
      vertex 3.23953 75.0228 19
    endloop
  endfacet
  facet normal 0.342064 0.939677 0
    outer loop
      vertex 2.75 75.201 19
      vertex 3.23953 75.0228 0
      vertex 2.75 75.201 0
    endloop
  endfacet
  facet normal 0.642721 0.766101 -0
    outer loop
      vertex 2.75 75.201 0
      vertex 2.35093 75.5358 19
      vertex 2.75 75.201 19
    endloop
  endfacet
  facet normal 0.642721 0.766101 0
    outer loop
      vertex 2.35093 75.5358 19
      vertex 2.75 75.201 0
      vertex 2.35093 75.5358 0
    endloop
  endfacet
  facet normal 0 1 -0
    outer loop
      vertex 3.76047 75.0228 0
      vertex 3.23953 75.0228 19
      vertex 3.76047 75.0228 19
    endloop
  endfacet
  facet normal 0 1 0
    outer loop
      vertex 3.23953 75.0228 19
      vertex 3.76047 75.0228 0
      vertex 3.23953 75.0228 0
    endloop
  endfacet
  facet normal -0.984793 -0.173731 0
    outer loop
      vertex 34 76.5 0
      vertex 33.9095 77.013 19
      vertex 33.9095 77.013 0
    endloop
  endfacet
  facet normal -0.984793 -0.173731 0
    outer loop
      vertex 33.9095 77.013 19
      vertex 34 76.5 0
      vertex 34 76.5 19
    endloop
  endfacet
  facet normal 0.866109 0.499855 0
    outer loop
      vertex 31.3509 75.5358 19
      vertex 31.0905 75.987 0
      vertex 31.0905 75.987 19
    endloop
  endfacet
  facet normal 0.866109 0.499855 0
    outer loop
      vertex 31.0905 75.987 0
      vertex 31.3509 75.5358 19
      vertex 31.3509 75.5358 0
    endloop
  endfacet
  facet normal 0.984793 0.173731 0
    outer loop
      vertex 31.0905 75.987 19
      vertex 31 76.5 0
      vertex 31 76.5 19
    endloop
  endfacet
  facet normal 0.984793 0.173731 0
    outer loop
      vertex 31 76.5 0
      vertex 31.0905 75.987 19
      vertex 31.0905 75.987 0
    endloop
  endfacet
  facet normal -0.642692 -0.766124 0
    outer loop
      vertex 33.25 77.799 0
      vertex 33.6491 77.4642 19
      vertex 33.25 77.799 19
    endloop
  endfacet
  facet normal -0.642692 -0.766124 -0
    outer loop
      vertex 33.6491 77.4642 19
      vertex 33.25 77.799 0
      vertex 33.6491 77.4642 0
    endloop
  endfacet
  facet normal -0.866109 -0.499855 0
    outer loop
      vertex 33.9095 77.013 0
      vertex 33.6491 77.4642 19
      vertex 33.6491 77.4642 0
    endloop
  endfacet
  facet normal -0.866109 -0.499855 0
    outer loop
      vertex 33.6491 77.4642 19
      vertex 33.9095 77.013 0
      vertex 33.9095 77.013 19
    endloop
  endfacet
  facet normal 0 -1 0
    outer loop
      vertex 32.2395 77.9772 0
      vertex 32.7605 77.9772 19
      vertex 32.2395 77.9772 19
    endloop
  endfacet
  facet normal 0 -1 -0
    outer loop
      vertex 32.7605 77.9772 19
      vertex 32.2395 77.9772 0
      vertex 32.7605 77.9772 0
    endloop
  endfacet
  facet normal 0.642692 -0.766124 0
    outer loop
      vertex 31.3509 77.4642 0
      vertex 31.75 77.799 19
      vertex 31.3509 77.4642 19
    endloop
  endfacet
  facet normal 0.642692 -0.766124 0
    outer loop
      vertex 31.75 77.799 19
      vertex 31.3509 77.4642 0
      vertex 31.75 77.799 0
    endloop
  endfacet
  facet normal 0.866109 -0.499855 0
    outer loop
      vertex 31.0905 77.013 19
      vertex 31.3509 77.4642 0
      vertex 31.3509 77.4642 19
    endloop
  endfacet
  facet normal 0.866109 -0.499855 0
    outer loop
      vertex 31.3509 77.4642 0
      vertex 31.0905 77.013 19
      vertex 31.0905 77.013 0
    endloop
  endfacet
  facet normal -0.984793 0.173731 0
    outer loop
      vertex 33.9095 75.987 0
      vertex 34 76.5 19
      vertex 34 76.5 0
    endloop
  endfacet
  facet normal -0.984793 0.173731 0
    outer loop
      vertex 34 76.5 19
      vertex 33.9095 75.987 0
      vertex 33.9095 75.987 19
    endloop
  endfacet
  facet normal 0.342082 -0.93967 0
    outer loop
      vertex 31.75 77.799 0
      vertex 32.2395 77.9772 19
      vertex 31.75 77.799 19
    endloop
  endfacet
  facet normal 0.342082 -0.93967 0
    outer loop
      vertex 32.2395 77.9772 19
      vertex 31.75 77.799 0
      vertex 32.2395 77.9772 0
    endloop
  endfacet
  facet normal -0.342082 -0.93967 0
    outer loop
      vertex 32.7605 77.9772 0
      vertex 33.25 77.799 19
      vertex 32.7605 77.9772 19
    endloop
  endfacet
  facet normal -0.342082 -0.93967 -0
    outer loop
      vertex 33.25 77.799 19
      vertex 32.7605 77.9772 0
      vertex 33.25 77.799 0
    endloop
  endfacet
  facet normal 0.984793 -0.173731 0
    outer loop
      vertex 31 76.5 19
      vertex 31.0905 77.013 0
      vertex 31.0905 77.013 19
    endloop
  endfacet
  facet normal 0.984793 -0.173731 0
    outer loop
      vertex 31.0905 77.013 0
      vertex 31 76.5 19
      vertex 31 76.5 0
    endloop
  endfacet
  facet normal -0.642692 0.766124 0
    outer loop
      vertex 33.6491 75.5358 0
      vertex 33.25 75.201 19
      vertex 33.6491 75.5358 19
    endloop
  endfacet
  facet normal -0.642692 0.766124 0
    outer loop
      vertex 33.25 75.201 19
      vertex 33.6491 75.5358 0
      vertex 33.25 75.201 0
    endloop
  endfacet
  facet normal -0.866109 0.499855 0
    outer loop
      vertex 33.6491 75.5358 0
      vertex 33.9095 75.987 19
      vertex 33.9095 75.987 0
    endloop
  endfacet
  facet normal -0.866109 0.499855 0
    outer loop
      vertex 33.9095 75.987 19
      vertex 33.6491 75.5358 0
      vertex 33.6491 75.5358 19
    endloop
  endfacet
  facet normal 0.342082 0.93967 -0
    outer loop
      vertex 32.2395 75.0228 0
      vertex 31.75 75.201 19
      vertex 32.2395 75.0228 19
    endloop
  endfacet
  facet normal 0.342082 0.93967 0
    outer loop
      vertex 31.75 75.201 19
      vertex 32.2395 75.0228 0
      vertex 31.75 75.201 0
    endloop
  endfacet
  facet normal 0.642692 0.766124 -0
    outer loop
      vertex 31.75 75.201 0
      vertex 31.3509 75.5358 19
      vertex 31.75 75.201 19
    endloop
  endfacet
  facet normal 0.642692 0.766124 0
    outer loop
      vertex 31.3509 75.5358 19
      vertex 31.75 75.201 0
      vertex 31.3509 75.5358 0
    endloop
  endfacet
  facet normal -0.342082 0.93967 0
    outer loop
      vertex 33.25 75.201 0
      vertex 32.7605 75.0228 19
      vertex 33.25 75.201 19
    endloop
  endfacet
  facet normal -0.342082 0.93967 0
    outer loop
      vertex 32.7605 75.0228 19
      vertex 33.25 75.201 0
      vertex 32.7605 75.0228 0
    endloop
  endfacet
  facet normal 0 1 -0
    outer loop
      vertex 32.7605 75.0228 0
      vertex 32.2395 75.0228 19
      vertex 32.7605 75.0228 19
    endloop
  endfacet
  facet normal 0 1 0
    outer loop
      vertex 32.2395 75.0228 19
      vertex 32.7605 75.0228 0
      vertex 32.2395 75.0228 0
    endloop
  endfacet
  facet normal 1 -0 0
    outer loop
      vertex 16.5 78 19
      vertex 16.5 80 8.5
      vertex 16.5 80 19
    endloop
  endfacet
  facet normal 1 0 0
    outer loop
      vertex 16.5 80 8.5
      vertex 16.5 78 19
      vertex 16.5 78 8.5
    endloop
  endfacet
  facet normal -1 0 0
    outer loop
      vertex 19.5 78 8.5
      vertex 19.5 80 19
      vertex 19.5 80 8.5
    endloop
  endfacet
  facet normal -1 -0 0
    outer loop
      vertex 19.5 80 19
      vertex 19.5 78 8.5
      vertex 19.5 78 19
    endloop
  endfacet
  facet normal -0 0 1
    outer loop
      vertex 16.5 80 8.5
      vertex 19.5 78 8.5
      vertex 19.5 80 8.5
    endloop
  endfacet
  facet normal 0 0 1
    outer loop
      vertex 19.5 78 8.5
      vertex 16.5 80 8.5
      vertex 16.5 78 8.5
    endloop
  endfacet
endsolid OpenSCAD_Model
